<svg width="21" height="32" viewBox="0 0 21 32" fill="none" xmlns="http://www.w3.org/2000/svg">
<path d="M8.76228 0.112914C7.84319 0.281727 7.04914 0.550578 6.10504 1.0195C3.50406 2.31374 1.65962 4.67087 1.00312 7.54695C0.821805 8.32224 0.778039 9.59772 0.909338 10.1167C1.23446 11.4172 2.12229 12.3925 3.38527 12.8239C3.84794 12.9865 4.00425 13.0115 4.57321 13.0052C5.67362 12.999 6.56146 12.6301 7.29298 11.8798C7.89946 11.2546 8.20582 10.5918 8.32462 9.679C8.35588 9.42266 8.43091 9.07252 8.48718 8.90996C8.61848 8.52857 9.08741 8.00963 9.52507 7.77204C9.83143 7.59697 9.90646 7.58447 10.4817 7.58447C11.0381 7.58447 11.1444 7.60322 11.4195 7.74703C11.8322 7.96586 12.2323 8.37851 12.4387 8.80367C12.5825 9.09753 12.6075 9.22883 12.6075 9.679C12.6075 10.1229 12.5825 10.2667 12.4449 10.5606C12.0698 11.3609 11.4133 11.7548 10.2754 11.8611C9.50631 11.9298 8.97486 12.1049 8.4184 12.4613C7.73065 12.9052 7.12417 13.7118 6.86782 14.5246C6.73652 14.9497 6.73027 15.0373 6.73027 18.0571V21.1521L6.92409 21.6835C7.02413 21.9774 7.21795 22.3775 7.34925 22.5713C7.83068 23.3029 8.71226 23.9343 9.55008 24.1532C10.0253 24.2782 10.9819 24.272 11.4758 24.1469C12.7513 23.8156 13.8079 22.7527 14.1393 21.4647C14.2393 21.0645 14.2643 20.7707 14.2643 19.8141V18.6449L14.8146 18.376C15.7899 17.8946 16.5465 17.3444 17.3593 16.5316C18.766 15.1248 19.6038 13.5742 20.0228 11.6172C20.1478 11.0545 20.1666 10.7732 20.1666 9.679C20.1666 8.59109 20.1478 8.29723 20.029 7.76578C19.3913 4.80217 17.5718 2.40752 14.9521 1.05702C14.1018 0.619354 13.5328 0.406774 12.6387 0.194195C11.7134 -0.0246375 9.7439 -0.0684039 8.76228 0.112914ZM11.3508 1.95736C12.9826 2.09491 14.727 2.94523 15.99 4.21445C18.6597 6.89671 19.0161 10.967 16.8716 14.1182C16.4652 14.7121 15.5586 15.6187 14.9521 16.0314C14.4394 16.3878 13.6766 16.7879 13.1327 16.988C12.7575 17.1318 12.5012 17.3569 12.3949 17.6382C12.3511 17.7445 12.3261 18.4073 12.3261 19.3076C12.3261 21.027 12.2761 21.2771 11.8197 21.746C10.9131 22.6776 9.41878 22.4338 8.84356 21.2583L8.6685 20.902V18.0259V15.1498L8.83731 14.8309C9.04989 14.4245 9.50006 14.0306 9.8752 13.9056C10.0378 13.8556 10.4504 13.7805 10.7943 13.743C11.5821 13.668 11.8009 13.6055 12.4199 13.2866C13.1077 12.9302 13.7829 12.255 14.1268 11.561C14.7708 10.2855 14.7208 8.78492 14.0017 7.56571C13.7392 7.12179 13.0764 6.45904 12.6137 6.18394C11.9572 5.79004 11.5008 5.665 10.663 5.62748C10.0315 5.60247 9.83769 5.62123 9.42503 5.73377C7.78692 6.18394 6.73652 7.39064 6.43641 9.16006C6.30511 9.97286 6.16756 10.2792 5.77991 10.6169C5.11717 11.2046 4.18557 11.2296 3.47905 10.6919C2.69126 10.0917 2.55996 9.12254 3.04764 7.45317C3.69788 5.20858 5.55483 3.23283 7.81818 2.38252C8.65599 2.0699 10.0065 1.84481 10.7005 1.90108C10.8193 1.91359 11.1132 1.9386 11.3508 1.95736Z" fill="#80C341"/>
<path d="M9.5626 25.8664C8.22459 26.2979 7.38678 27.4545 7.38678 28.8738C7.38678 30.6683 8.71853 32 10.513 32C12.3074 32 13.6391 30.6683 13.6391 28.8738C13.6391 27.4545 12.7888 26.2791 11.4571 25.8727C10.9381 25.7101 10.0628 25.7101 9.5626 25.8664ZM11.0632 27.8047C11.4821 28.0173 11.7009 28.3861 11.7009 28.8738C11.7009 29.5678 11.207 30.0618 10.513 30.0618C9.81894 30.0618 9.32501 29.5678 9.32501 28.8738C9.32501 28.1798 9.80644 27.6921 10.5004 27.6859C10.7068 27.6859 10.9194 27.7296 11.0632 27.8047Z" fill="#80C341"/>
</svg>
