<svg width="16" height="15" viewBox="0 0 16 15" fill="none" xmlns="http://www.w3.org/2000/svg">
<path d="M7.83093 11.0268L7.83386 11.0239L8.60725 11.4369L11.1032 12.7699L10.6199 9.91065L10.4792 9.06987L11.0856 8.46931L13.1393 6.43914L10.324 6.02314L9.46561 5.89717L9.0877 5.11792L7.83386 2.54577L7.83093 2.55456V11.0268ZM12.9606 13.9066C13.0191 14.2581 12.8727 14.6155 12.5826 14.8235C12.2926 15.0315 11.9089 15.0579 11.5925 14.8909L7.83386 12.8841L4.07525 14.8909C3.75886 15.0579 3.37509 15.0315 3.08506 14.8235C2.79504 14.6155 2.64856 14.2581 2.70715 13.9066L3.43075 9.6382L0.378163 6.61784C0.126222 6.36883 0.0354063 5.99678 0.146729 5.65988C0.258052 5.32298 0.548077 5.0769 0.899622 5.02417L5.10645 4.40311L6.99308 0.527318C7.15127 0.205068 7.47645 0 7.83678 0C8.19712 0 8.5223 0.205068 8.68049 0.527318L10.5642 4.40311L14.771 5.02417C15.1226 5.0769 15.4155 5.32298 15.5239 5.65988C15.6323 5.99678 15.5444 6.36883 15.2925 6.61784L12.2399 9.6382L12.9606 13.9066Z" fill="#80C341"/>
</svg>
