<svg width="17" height="15" viewBox="0 0 17 15" fill="none" xmlns="http://www.w3.org/2000/svg">
<path d="M11.1649 4.40392L15.3743 5.02493C15.7229 5.07473 16.0158 5.32079 16.1271 5.65767C16.2384 5.99747 16.1476 6.36656 15.8957 6.61848L12.8434 9.61225L13.564 13.9066C13.6226 14.2582 13.479 14.6155 13.1861 14.8235C12.8961 15.0315 12.5123 15.0579 12.1989 14.8909L8.43766 12.8843L4.67934 14.8909C4.36297 15.0579 3.97923 15.0315 3.68923 14.8235C3.39923 14.6155 3.25276 14.2582 3.31428 13.9066L4.03489 9.61225L0.981949 6.61848C0.729735 6.36656 0.640097 5.99747 0.750826 5.65767C0.861261 5.32079 1.15331 5.07473 1.50454 5.02493L5.71046 4.40392L7.59694 0.527544C7.7522 0.20485 8.08028 0 8.43766 0C8.79797 0 9.12605 0.20485 9.2813 0.527544L11.1649 4.40392Z" fill="#80C341"/>
</svg>
