<svg width="16" height="15" viewBox="0 0 16 15" fill="none" xmlns="http://www.w3.org/2000/svg">
<path d="M7.73868 0C8.00819 0 8.25426 0.152332 8.37144 0.395478L10.3811 4.53481L14.869 5.19687C15.1327 5.23496 15.3524 5.41951 15.4344 5.67438C15.5164 5.92924 15.449 6.20461 15.2615 6.3921L12.0069 9.62037L12.7744 14.1786C12.8184 14.4423 12.71 14.7089 12.4932 14.867C12.2764 15.0252 11.9864 15.0428 11.752 14.9168L7.73868 12.7725L3.72824 14.9139C3.49095 15.0399 3.20387 15.0223 2.98708 14.8641C2.7703 14.7059 2.65898 14.4393 2.70293 14.1757L3.47045 9.61744L0.21581 6.3921C0.0253943 6.20461 -0.039054 5.92631 0.0429711 5.67438C0.124996 5.42244 0.344706 5.23789 0.608358 5.19687L5.0963 4.53481L7.10591 0.395478C7.22602 0.152332 7.46917 0 7.73868 0ZM7.73868 2.31428L6.20071 5.48396C6.09818 5.69195 5.9019 5.83843 5.67048 5.87358L2.20492 6.38331L4.72133 8.87628C4.88245 9.0374 4.95862 9.2659 4.92053 9.49147L4.32585 12.998L7.40765 11.3517C7.61564 11.2404 7.86465 11.2404 8.06971 11.3517L11.1515 12.998L10.5598 9.4944C10.5217 9.26883 10.5949 9.04033 10.759 8.87921L13.2754 6.38624L9.80981 5.87358C9.58131 5.83843 9.38211 5.69488 9.27958 5.48396L7.73868 2.31428Z" fill="#80C341"/>
</svg>
