<svg width="27" height="32" viewBox="0 0 27 32" fill="none" xmlns="http://www.w3.org/2000/svg">
<path d="M12.2062 0.104918C12.1312 0.167422 9.94357 3.38013 7.33716 7.24912C2.26808 14.7684 1.96806 15.2621 1.51803 16.656C0.717983 19.1749 0.742985 21.7876 1.59929 24.244C3.02438 28.3192 6.62461 31.2632 10.9749 31.9132C12.0125 32.0695 13.9563 32.007 14.9814 31.7882C18.5191 31.0381 21.4693 28.7567 23.0882 25.5253C23.982 23.7314 24.4382 21.4 24.2632 19.4999L24.2007 18.8436L24.5008 18.5311C24.932 18.0873 25.232 17.6685 25.4821 17.181C26.2946 15.5622 26.2509 13.3995 25.3758 11.9057C25.007 11.2806 21.1005 5.51151 20.938 5.35525C20.7193 5.15524 20.3067 5.12399 20.0942 5.299C20.0192 5.35525 19.5879 5.96154 19.1317 6.63659C18.6691 7.31788 18.2941 7.86791 18.2879 7.85541C18.2816 7.84916 17.119 6.1178 15.7002 4.01767C14.2813 1.91128 13.0625 0.148671 12.9875 0.0924173C12.8063 -0.0388411 12.3625 -0.0263403 12.2062 0.104918ZM15.0877 5.48651L17.4941 9.06799L16.4877 10.5806C15.4502 12.1244 15.2377 12.5432 15.0251 13.4245C14.8751 14.0621 14.8876 15.2684 15.0564 15.9559C15.5627 18.0061 17.119 19.5624 19.1754 20.0749C20.238 20.3375 21.6756 20.2312 22.6131 19.8124C22.7694 19.7437 22.9194 19.6999 22.9382 19.7249C23.0194 19.8062 22.9444 21.3813 22.8194 22.0876C22.1006 26.2816 18.8816 29.6006 14.6564 30.5069C13.8626 30.6756 12.125 30.7381 11.2999 30.6256C7.35591 30.1006 4.03695 27.3629 2.79312 23.6189C2.38684 22.3938 2.29308 21.8126 2.29308 20.375C2.28683 19.3999 2.31809 18.9561 2.39934 18.5311C2.5681 17.6498 2.99313 16.4185 3.3744 15.6747C3.75568 14.9434 12.575 1.79878 12.6375 1.86753C12.6625 1.88628 13.7626 3.51764 15.0877 5.48651ZM22.3506 9.75553C23.3507 11.2369 24.2507 12.6307 24.357 12.862C25.2383 14.7434 24.6008 17.0122 22.8506 18.1811C21.013 19.4062 18.6691 19.0624 17.2065 17.3435C16.5002 16.5247 16.1127 15.2371 16.2502 14.1808C16.319 13.637 16.4627 13.1307 16.6628 12.7432C16.8253 12.437 20.4505 7.06161 20.5005 7.06161C20.5192 7.06786 21.3568 8.27419 22.3506 9.75553Z" fill="#80C341"/>
<path d="M5.44948 15.206C5.13071 15.356 4.33691 16.7498 4.00563 17.7436C3.69936 18.65 3.62436 19.0937 3.59311 20.2188C3.53685 21.8314 3.76812 22.9627 4.40566 24.2816C5.33697 26.1879 6.88707 27.6568 8.83094 28.4756C9.59349 28.8006 9.82476 28.8444 10.0873 28.7193C10.331 28.6068 10.4435 28.4068 10.4435 28.0943C10.4435 27.7818 10.2373 27.6005 9.56849 27.3443C7.29334 26.4505 5.64949 24.5941 5.06195 22.2377C4.88069 21.4939 4.83069 20.1 4.9682 19.3187C5.14946 18.2937 5.49323 17.4249 6.05576 16.5561C6.41204 16.0123 6.45579 15.881 6.37454 15.5873C6.26828 15.2185 5.81825 15.0247 5.44948 15.206Z" fill="#80C341"/>
<path d="M11.3749 28.0879C10.8686 28.3754 11.0499 29.1942 11.6499 29.2942C12.225 29.3817 12.6187 28.6629 12.2375 28.2191C12.0625 28.0129 11.6249 27.9504 11.3749 28.0879Z" fill="#80C341"/>
<path d="M17.594 12.7869C17.269 12.9432 17.0752 13.462 17.0252 14.2808C16.969 15.2371 17.269 16.1184 17.869 16.7684C18.5066 17.4497 18.9254 17.5997 19.3066 17.281C19.6879 16.9559 19.6129 16.5497 19.0816 16.0809C18.3941 15.4809 18.1753 14.6933 18.4441 13.787C18.5816 13.3245 18.5816 13.2932 18.4878 13.0869C18.4191 12.9432 18.3003 12.8369 18.1628 12.7744C17.894 12.6619 17.8378 12.6682 17.594 12.7869Z" fill="#80C341"/>
<path d="M20.213 16.7809C19.9692 16.8872 19.8817 17.0434 19.8817 17.3685C19.8817 17.7435 20.1192 17.9998 20.4755 17.9998C20.988 17.9998 21.2943 17.5497 21.1005 17.0872C21.038 16.9434 20.938 16.8434 20.7943 16.7809C20.5255 16.6684 20.4693 16.6684 20.213 16.7809Z" fill="#80C341"/>
</svg>
