<svg width="33" height="32" viewBox="0 0 33 32" fill="none" xmlns="http://www.w3.org/2000/svg">
<path d="M14.7451 0.0609049C8.49975 0.776515 3.24977 5.05717 1.27209 11.0488C0.73863 12.6687 0.497925 14.217 0.497925 15.993C0.497925 17.769 0.73863 19.3173 1.27209 20.9372C2.09178 23.4223 3.3994 25.5236 5.25348 27.3582C7.06202 29.1472 9.11127 30.4093 11.4533 31.1835C16.1828 32.7513 21.3677 32.0357 25.4467 29.2578C26.39 28.6138 26.917 28.1844 27.7497 27.3582C30.3649 24.7755 31.9523 21.5422 32.4076 17.8796C32.5182 16.9428 32.5378 15.2318 32.4337 14.3146C31.9197 9.52648 29.2785 5.23932 25.219 2.57205C23.1437 1.21889 20.8278 0.379677 18.3361 0.0869271C17.4514 -0.0171617 15.5518 -0.0301728 14.7451 0.0609049ZM18.5508 1.52465C24.3798 2.38339 29.2004 6.70307 30.6446 12.3499C30.9894 13.7161 31.1 14.5488 31.1 15.9605C31.1 17.3917 30.9894 18.296 30.6446 19.6296C29.3435 24.7234 25.2255 28.8349 20.1447 30.1361C18.7785 30.4809 17.9458 30.5914 16.5341 30.5914C14.6215 30.5914 12.8975 30.2727 11.2321 29.6156C6.28786 27.6509 2.83342 23.3117 2.02022 18.0097C1.86409 16.9818 1.86409 15.0042 2.02022 13.9763C2.67078 9.75417 4.97374 6.13709 8.49324 3.79509C10.549 2.42892 12.8455 1.64826 15.5257 1.39454C16.0852 1.3425 17.8417 1.41406 18.5508 1.52465Z" fill="#80C341"/>
<path d="M15.2329 2.76106C13.2097 2.97575 11.6614 3.3921 10.0675 4.15976C6.13168 6.04637 3.6921 9.52684 3.13262 14.0482C3.00902 15.0761 3.00902 16.748 3.13262 17.7303C3.64005 21.6076 5.84543 25.1141 9.15025 27.287C12.5917 29.5444 16.9829 30.0844 20.9123 28.7312C24.6595 27.4431 27.652 24.5612 29.0833 20.8595C29.3955 20.0528 29.7143 18.8688 29.8509 18.0101C29.981 17.1709 29.9615 14.3865 29.8184 13.5538C29.324 10.7239 28.218 8.48595 26.429 6.68391C25.3686 5.61049 24.3732 4.90139 22.9745 4.21831C21.5889 3.53522 20.2617 3.11887 18.7134 2.88467C18.0564 2.78709 15.7794 2.70251 15.2329 2.76106ZM18.0564 4.02314L18.4011 4.10121L18.3556 4.56961C18.1669 6.56031 17.4058 8.47944 16.6967 8.77219C16.521 8.84375 16.4625 8.84375 16.2803 8.75268C15.7794 8.51848 15.246 7.56216 14.9402 6.33912C14.771 5.66904 14.6149 4.6802 14.6149 4.27035C14.6149 4.0882 14.6149 4.0882 15.6883 3.93206C16.0396 3.88002 17.6985 3.94507 18.0564 4.02314ZM13.3268 4.93392C13.5415 7.15231 14.3872 9.14951 15.4151 9.85211C15.8054 10.1188 16.0917 10.2034 16.6381 10.2034C17.7376 10.2034 18.7004 9.19505 19.2924 7.41904C19.5331 6.69042 19.7348 5.7341 19.7933 5.01198C19.8194 4.69321 19.8714 4.45251 19.9169 4.4395C20.0601 4.38095 21.1985 4.82332 22.0833 5.27871L22.4281 5.46087L22.0117 5.99432C20.4439 8.00454 19.7998 9.81308 20.1837 11.1077C20.3268 11.5891 20.8798 12.1486 21.4002 12.3437C22.6232 12.7926 24.5489 12.1225 26.5656 10.5547L27.0926 10.1384L27.3918 10.7434C27.7561 11.498 28.166 12.5389 28.1269 12.6365C28.1074 12.682 27.7887 12.7471 27.3593 12.7926C25.4987 12.9878 23.7877 13.6448 22.955 14.4776C22.4736 14.9525 22.2915 15.3753 22.2915 15.9999C22.2915 16.6504 22.5257 17.1448 23.0721 17.6327C23.9439 18.4264 25.7524 19.077 27.4894 19.2201C27.8017 19.2461 28.0424 19.2982 28.0554 19.3437C28.1009 19.4608 27.7106 20.5147 27.3593 21.2108L27.0405 21.8483L26.3314 21.3084C24.7375 20.1049 23.3779 19.5063 22.2264 19.5063C21.5238 19.5063 21.1335 19.6365 20.7106 20.0268C20.2032 20.4887 20.0536 20.8595 20.0601 21.6532C20.0731 22.9738 20.6976 24.34 22.2264 26.3502L22.3565 26.5193L21.7255 26.8251C20.9253 27.2154 19.956 27.5927 19.8519 27.5537C19.8063 27.5342 19.7543 27.3195 19.7348 27.0203C19.5526 24.8929 18.6744 22.8372 17.653 22.1346C17.2627 21.8679 16.9764 21.7833 16.43 21.7833C15.0833 21.7833 13.9709 23.2731 13.4504 25.7842C13.3789 26.142 13.3008 26.682 13.2748 26.9747C13.2487 27.2935 13.1967 27.5342 13.1512 27.5472C13.0341 27.5927 11.9802 27.2024 11.2841 26.8511L10.6465 26.5323L11.1865 25.8232C12.39 24.2294 12.9885 22.8697 12.9885 21.7182C12.9885 21.0156 12.8584 20.6253 12.4681 20.2024C12.0062 19.695 11.6354 19.5454 10.8417 19.5519C9.52107 19.5649 8.1549 20.1894 6.14469 21.7182L5.97555 21.8483L5.67629 21.2433C5.28596 20.4431 4.90213 19.4478 4.94767 19.3372C4.96719 19.2787 5.07778 19.2461 5.24042 19.2461C5.62425 19.2461 6.89933 19.0119 7.54989 18.8233C9.07219 18.3809 10.0936 17.7108 10.5359 16.8716C10.627 16.6894 10.6791 16.4487 10.6986 16.0714C10.7246 15.5705 10.7116 15.5054 10.5229 15.1151C10.035 14.1263 8.67535 13.3521 6.71067 12.9422C6.35287 12.8707 5.81291 12.7926 5.52016 12.7666C5.20139 12.7406 4.96068 12.6885 4.94767 12.643C4.90213 12.5259 5.29246 11.472 5.64376 10.7694L5.96904 10.1319L6.5025 10.5482C7.54989 11.3679 8.55174 11.9274 9.54059 12.2592C10.009 12.4153 10.2042 12.4413 10.8417 12.4413C11.5313 12.4478 11.6159 12.4348 11.9151 12.2722C12.338 12.051 12.6828 11.6867 12.8714 11.2768C12.9885 11.0101 13.0145 10.841 13.008 10.3335C12.995 9.0129 12.364 7.64673 10.8417 5.64302L10.7116 5.46737L11.2841 5.18763C12.0257 4.82332 13.0601 4.41347 13.1837 4.43299C13.2553 4.446 13.2943 4.57611 13.3268 4.93392ZM9.95044 6.89209C11.3426 8.60305 11.9802 10.5287 11.3166 10.9711C10.6595 11.4004 8.53873 10.5092 7.0945 9.20156L6.77573 8.92182L6.96439 8.64859C7.29617 8.17368 7.94022 7.45157 8.34357 7.10677C8.93557 6.59934 9.35843 6.29358 9.4365 6.3196C9.47553 6.33261 9.70973 6.58633 9.95044 6.89209ZM24.1586 6.70993C24.7245 7.17833 25.7394 8.21271 26.0256 8.62907C26.2078 8.9023 26.2143 8.90881 26.0907 9.03892C25.863 9.29264 24.7961 10.0603 24.2301 10.3856C23.1892 10.9776 22.0833 11.2313 21.6864 10.9646C21.0879 10.5742 21.5043 9.03892 22.6493 7.40603C23.0331 6.85956 23.508 6.30008 23.5926 6.30008C23.6186 6.30008 23.8723 6.48874 24.1586 6.70993ZM5.61774 14.2108C6.61309 14.354 7.47833 14.5947 8.14189 14.9134C9.0917 15.3623 9.45601 15.7722 9.28036 16.1885C9.07869 16.6829 8.06383 17.2489 6.84729 17.5547C6.13818 17.7368 4.70046 17.9385 4.6289 17.8669C4.56384 17.8019 4.46626 17.1123 4.42723 16.4227C4.38819 15.7787 4.46626 14.6857 4.57035 14.2564C4.61589 14.0742 4.69395 14.0677 5.61774 14.2108ZM28.4327 14.2499C28.4522 14.3344 28.5043 14.7573 28.5498 15.1932C28.6214 15.9543 28.5628 17.2619 28.4327 17.7303C28.3807 17.9125 28.3026 17.9125 27.3853 17.7759C25.5377 17.5026 23.9894 16.8326 23.7227 16.1885C23.6511 16.0129 23.6511 15.9543 23.7422 15.7722C24.113 14.985 26.2273 14.1913 28.1204 14.1198C28.3481 14.1067 28.4002 14.1263 28.4327 14.2499ZM11.3361 21.0352C12.0322 21.4905 11.1995 23.7219 9.71624 25.3939L9.42999 25.7191L9.04617 25.4329C8.57777 25.0816 7.46532 23.9692 7.07498 23.4552C6.7367 23.0128 6.71718 23.0649 7.53037 22.4338C9.0917 21.2303 10.7181 20.6318 11.3361 21.0352ZM23.0916 21.0807C23.9048 21.3474 25.1344 22.0825 25.8695 22.7461L26.2273 23.0649L26.0322 23.3511C25.5638 24.0342 23.7617 25.7322 23.5666 25.6671C23.5275 25.6541 23.2933 25.4004 23.0526 25.0946C21.9337 23.7154 21.2311 22.063 21.4588 21.3539C21.6214 20.8595 22.1483 20.7684 23.0916 21.0807ZM16.7617 23.247C17.2432 23.4942 17.7636 24.4636 18.0694 25.6671C18.2385 26.3437 18.4467 27.7944 18.3816 27.8595C18.2255 28.0156 15.9616 28.0872 15.1354 27.9636C14.9012 27.931 14.693 27.8985 14.667 27.8985C14.5889 27.8985 14.6019 27.6318 14.719 26.8771C14.8621 25.9078 15.1028 25.0296 15.4021 24.392C15.7013 23.748 15.916 23.4487 16.2023 23.2731C16.443 23.1234 16.5145 23.1234 16.7617 23.247Z" fill="#80C341"/>
<path d="M15.6689 12.2525C14.602 12.4867 13.5806 13.2739 13.0992 14.2367C12.3381 15.759 12.6113 17.5155 13.7888 18.693C14.9793 19.877 16.6838 20.1502 18.2451 19.4086C19.2144 18.9532 20.0081 17.9123 20.2423 16.8064C20.8148 14.0676 18.4012 11.6605 15.6689 12.2525ZM17.549 13.8008C18.0044 14.022 18.4728 14.4904 18.7005 14.9523C18.8566 15.2711 18.8761 15.3817 18.8761 15.9607C18.8761 16.5462 18.8566 16.6503 18.6875 17.0016C18.4403 17.496 18.0044 17.9319 17.51 18.1791C17.1587 18.3482 17.0546 18.3677 16.5016 18.3677C15.9682 18.3677 15.8315 18.3417 15.5128 18.1921C14.1076 17.535 13.6457 15.7525 14.5695 14.549C14.8557 14.1782 15.181 13.9309 15.6299 13.7423C15.9616 13.6057 16.0918 13.5861 16.6057 13.6057C17.0806 13.6187 17.2563 13.6577 17.549 13.8008Z" fill="#80C341"/>
<path d="M16.1112 15.2642C15.8119 15.4203 15.6363 15.7521 15.6818 16.0839C15.7209 16.4287 15.903 16.6564 16.2283 16.7735C16.469 16.8581 16.5341 16.8581 16.7748 16.7735C17.4578 16.5263 17.5294 15.609 16.8854 15.2642C16.6056 15.1146 16.3974 15.1146 16.1112 15.2642Z" fill="#80C341"/>
</svg>
