<svg width="30" height="32" viewBox="0 0 30 32" fill="none" xmlns="http://www.w3.org/2000/svg">
<path d="M19.0042 0.137628C17.6599 0.566654 16.6517 1.58917 16.2584 2.9263C16.1869 3.16941 16.144 3.58414 16.144 4.00601C16.144 5.13578 16.5302 6.07964 17.3024 6.85188C18.0747 7.62413 19.0185 8.01025 20.1483 8.01025C21.2781 8.01025 22.2219 7.62413 22.9942 6.85188C23.7664 6.07964 24.1525 5.13578 24.1525 4.00601C24.1525 3.21946 24.0381 2.76184 23.6806 2.06824C23.223 1.19589 22.4007 0.516601 21.4139 0.180531C20.7346 -0.0411326 19.6335 -0.0625839 19.0042 0.137628ZM21.3138 1.45331C21.8429 1.69642 22.4579 2.30421 22.7081 2.84049C22.8798 3.21231 22.9012 3.34102 22.9012 4.00601C22.9012 4.671 22.8798 4.79971 22.7081 5.17153C22.4579 5.70066 21.8429 6.3156 21.3138 6.56587C20.942 6.73748 20.8133 6.75893 20.1483 6.75893C19.4833 6.75893 19.3546 6.73748 18.9828 6.56587C18.4536 6.3156 17.8387 5.70066 17.5884 5.17153C17.4168 4.79971 17.3954 4.671 17.3954 4.00601C17.3954 3.34102 17.4168 3.21231 17.5813 2.86194C17.9245 2.13975 18.5108 1.60347 19.2402 1.34605C19.7979 1.14584 20.7632 1.19589 21.3138 1.45331Z" fill="#80C341"/>
<path d="M6.13344 4.11331C3.58074 4.68535 1.62867 6.52301 0.899323 9.05426C0.756315 9.54764 0.734863 9.77645 0.734863 10.8705C0.734863 11.9645 0.756315 12.1933 0.899323 12.6867C1.70732 15.4825 4.13132 17.5275 6.86993 17.7134C7.39907 17.7492 7.49202 17.7706 7.45627 17.8707C7.0916 19.0506 6.97004 20.0731 7.01294 21.589C7.04154 22.59 7.08445 23.0048 7.22746 23.5982C7.72799 25.7076 8.63609 27.3308 10.1663 28.861C11.4391 30.1266 12.7976 30.9775 14.385 31.4995C15.7293 31.9356 16.1655 32 17.8601 32C19.2116 32 19.4904 31.9785 20.1411 31.8355C22.2934 31.3493 23.9881 30.4198 25.5469 28.8538C27.1128 27.295 28.0424 25.6004 28.5286 23.4481C28.6716 22.7974 28.6931 22.5185 28.6931 21.1671C28.6931 19.4653 28.5929 18.8003 28.1425 17.5275C27.2272 14.9319 25.2108 12.6581 22.7224 11.4068C21.2566 10.6703 20.041 10.3771 18.2892 10.3199C16.7733 10.2698 15.7436 10.3914 14.5638 10.7632C14.4637 10.799 14.4422 10.706 14.4065 10.1769C14.2206 7.45256 12.1827 5.02857 9.41549 4.21342C8.7219 4.01321 6.84848 3.956 6.13344 4.11331ZM8.7791 5.33604C9.09372 5.40039 9.60855 5.59345 10.0304 5.79366C11.2603 6.3943 12.0397 7.1737 12.6403 8.40357C13.0408 9.23302 13.2124 9.91946 13.2124 10.7132V11.278L12.5617 11.6499C10.7669 12.6724 9.36544 14.0739 8.34292 15.8686C8.00685 16.4621 7.94965 16.5193 7.74944 16.5265C6.74838 16.5551 6.02618 16.3978 5.09663 15.9473C3.86675 15.3466 3.08736 14.5672 2.48672 13.3374C2.06484 12.465 1.91468 11.8215 1.91468 10.8705C1.91468 9.91946 2.06484 9.27592 2.48672 8.40357C3.08736 7.1737 3.86675 6.3943 5.09663 5.79366C6.3265 5.19303 7.40622 5.06432 8.7791 5.33604ZM18.7897 11.5426C20.0482 11.6284 21.6284 12.1432 22.8154 12.8654C25.0821 14.2383 26.6266 16.3334 27.2844 18.929C27.4632 19.6441 27.4775 19.8085 27.4775 21.1671C27.4775 22.5328 27.4632 22.6901 27.2773 23.4052C26.0974 28.0959 21.9144 31.1348 17.1094 30.8059C14.5423 30.6343 12.0039 29.3043 10.3808 27.2879C9.45124 26.1366 8.80055 24.8353 8.43588 23.4052C8.25712 22.6901 8.24282 22.5257 8.24282 21.1671C8.24282 19.8085 8.25712 19.6441 8.43588 18.929C9.22243 15.84 11.3175 13.4017 14.2277 12.2005C15.3003 11.7571 17.188 11.3996 18.0032 11.4854C18.1033 11.4997 18.4536 11.5212 18.7897 11.5426Z" fill="#80C341"/>
<path d="M6.31219 6.43017C4.40303 6.98076 2.98724 8.77552 2.98724 10.6489C2.98724 11.271 3.11595 11.4426 3.55928 11.4426C3.93825 11.4426 4.10986 11.2639 4.16706 10.8205C4.29577 9.74797 4.51744 9.21884 5.09662 8.59675C5.72586 7.91746 6.4123 7.59569 7.51347 7.46699C7.95679 7.41693 8.13555 7.24532 8.13555 6.86635C8.13555 6.40872 7.96394 6.29432 7.29895 6.30147C6.99149 6.30147 6.54816 6.35867 6.31219 6.43017Z" fill="#80C341"/>
<path d="M15.2431 13.5733C12.9979 14.3456 11.2031 16.0617 10.3808 18.2211C10.1019 18.9505 10.0876 19.1507 10.2878 19.4081C10.4022 19.5582 10.4952 19.594 10.7383 19.594C11.1101 19.594 11.2317 19.4796 11.4176 18.9433C11.7179 18.0567 12.2185 17.2415 12.8977 16.5265C13.7773 15.5898 14.7283 15.0034 15.9796 14.6173C16.6088 14.4242 16.7876 14.2741 16.7876 13.938C16.7876 13.6448 16.7161 13.5233 16.4944 13.4089C16.2084 13.2587 16.1369 13.2659 15.2431 13.5733Z" fill="#80C341"/>
<path d="M10.6025 23.634C10.3451 23.8842 10.3737 24.206 10.7026 24.8424C11.8323 27.0304 13.8273 28.5391 16.2299 29.0325C16.6088 29.1112 17.1952 29.1755 17.5312 29.1755C18.0532 29.1755 18.1676 29.1541 18.2892 29.0325C18.4465 28.8752 18.4822 28.4748 18.3607 28.246C18.2677 28.0744 17.8673 27.96 17.3525 27.96C16.8162 27.96 15.665 27.6596 15.0286 27.3593C13.5913 26.68 12.4544 25.586 11.7751 24.2274C11.625 23.9271 11.4248 23.6268 11.339 23.5696C11.103 23.4051 10.8027 23.4266 10.6025 23.634Z" fill="#80C341"/>
<path d="M25.4396 6.43709C25.3395 6.53719 25.2966 6.67305 25.2966 6.88041C25.2966 7.15928 25.3323 7.21649 25.9258 7.80997C26.4907 8.37486 26.5836 8.43921 26.8268 8.43921C27.1914 8.43921 27.4417 8.18894 27.4417 7.82427C27.4417 7.58116 27.3773 7.4882 26.8125 6.92332C26.219 6.32983 26.1618 6.29408 25.8829 6.29408C25.6755 6.29408 25.5397 6.33698 25.4396 6.43709Z" fill="#80C341"/>
<path d="M28.357 6.92332C27.7921 7.4882 27.7277 7.58116 27.7277 7.82427C27.7277 8.18894 27.978 8.43921 28.3427 8.43921C28.5858 8.43921 28.6787 8.37486 29.2436 7.80997C29.8371 7.21649 29.8729 7.15928 29.8729 6.88041C29.8729 6.67305 29.8299 6.53719 29.7298 6.43709C29.6297 6.33698 29.4939 6.29408 29.2865 6.29408C29.0076 6.29408 28.9504 6.32983 28.357 6.92332Z" fill="#80C341"/>
<path d="M25.9258 9.35471C25.3323 9.9482 25.2966 10.0054 25.2966 10.2843C25.2966 10.4916 25.3395 10.6275 25.4396 10.7276C25.5397 10.8277 25.6755 10.8706 25.8829 10.8706C26.1618 10.8706 26.219 10.8349 26.8125 10.2414C27.3773 9.67648 27.4417 9.58353 27.4417 9.34041C27.4417 8.97574 27.1914 8.72548 26.8268 8.72548C26.5836 8.72548 26.4907 8.78983 25.9258 9.35471Z" fill="#80C341"/>
<path d="M27.9065 8.90424C27.7778 9.02579 27.7277 9.1545 27.7277 9.34041C27.7277 9.58353 27.7921 9.67648 28.357 10.2414C28.9504 10.8349 29.0076 10.8706 29.2865 10.8706C29.4939 10.8706 29.6297 10.8277 29.7298 10.7276C29.8299 10.6275 29.8729 10.4916 29.8729 10.2843C29.8729 10.0054 29.8371 9.9482 29.2436 9.35471C28.6787 8.78983 28.5858 8.72548 28.3427 8.72548C28.1567 8.72548 28.028 8.77553 27.9065 8.90424Z" fill="#80C341"/>
<path d="M0.270084 24.1702C0.169978 24.2703 0.127075 24.4062 0.127075 24.6136C0.127075 24.8924 0.162827 24.9496 0.756313 25.5431C1.3212 26.108 1.41415 26.1724 1.65727 26.1724C2.02194 26.1724 2.2722 25.9221 2.2722 25.5574C2.2722 25.3143 2.20785 25.2214 1.64297 24.6565C1.04948 24.063 0.992277 24.0272 0.713411 24.0272C0.506048 24.0272 0.37019 24.0701 0.270084 24.1702Z" fill="#80C341"/>
<path d="M3.18747 24.6565C2.62258 25.2214 2.55823 25.3143 2.55823 25.5574C2.55823 25.7433 2.60828 25.872 2.73699 25.9936C2.85855 26.1223 2.98725 26.1724 3.17316 26.1724C3.41628 26.1724 3.50924 26.108 4.07412 25.5431C4.66761 24.9496 4.70336 24.8924 4.70336 24.6136C4.70336 24.4062 4.66045 24.2703 4.56035 24.1702C4.46024 24.0701 4.32438 24.0272 4.11702 24.0272C3.83815 24.0272 3.78095 24.063 3.18747 24.6565Z" fill="#80C341"/>
<path d="M0.756313 27.0876C0.162827 27.6811 0.127075 27.7383 0.127075 28.0172C0.127075 28.2245 0.169978 28.3604 0.270084 28.4605C0.37019 28.5606 0.506048 28.6035 0.713411 28.6035C0.992277 28.6035 1.04948 28.5678 1.64297 27.9743C2.20785 27.4094 2.2722 27.3164 2.2722 27.0733C2.2722 26.7087 2.02194 26.4584 1.65727 26.4584C1.41415 26.4584 1.3212 26.5227 0.756313 27.0876Z" fill="#80C341"/>
<path d="M2.73699 26.6371C2.60828 26.7587 2.55823 26.8874 2.55823 27.0733C2.55823 27.3164 2.62258 27.4094 3.18747 27.9743C3.78095 28.5678 3.83815 28.6035 4.11702 28.6035C4.32438 28.6035 4.46024 28.5606 4.56035 28.4605C4.66045 28.3604 4.70336 28.2245 4.70336 28.0172C4.70336 27.7383 4.66761 27.6811 4.07412 27.0876C3.50924 26.5227 3.41628 26.4584 3.17316 26.4584C2.98725 26.4584 2.85855 26.5084 2.73699 26.6371Z" fill="#80C341"/>
</svg>
