<svg width="23" height="30" viewBox="0 0 23 30" fill="none" xmlns="http://www.w3.org/2000/svg">
<path d="M9.86133 29.2888C6.80273 25.5271 0 16.4099 0 11.2888C0 5.07554 5.03672 0.0388184 11.25 0.0388184C17.4609 0.0388184 22.5 5.07554 22.5 11.2888C22.5 16.4099 15.6445 25.5271 12.6387 29.2888C11.918 30.1853 10.582 30.1853 9.86133 29.2888ZM11.25 15.0388C13.3184 15.0388 15 13.3572 15 11.2888C15 9.22046 13.3184 7.53882 11.25 7.53882C9.18164 7.53882 7.5 9.22046 7.5 11.2888C7.5 13.3572 9.18164 15.0388 11.25 15.0388Z" fill="#80C341"/>
</svg>
