<svg width="151" height="24" viewBox="0 0 151 24" fill="none" xmlns="http://www.w3.org/2000/svg">
<path d="M15.4813 8.34262V19.5947H14.0143L13.8275 17.8897C13.279 18.518 12.5993 19.0184 11.8365 19.3555C11.0736 19.6927 10.2461 19.8585 9.41228 19.8411C6.0856 19.8411 3.58875 17.32 3.58875 13.969C3.58875 10.5987 6.0856 8.0965 9.41228 8.0965C10.2515 8.07804 11.0844 8.2451 11.8516 8.58574C12.6187 8.92639 13.3012 9.43222 13.8503 10.0671L14.0712 8.34263L15.4813 8.34262ZM13.6722 13.9686C13.6914 13.4201 13.598 12.8734 13.3979 12.3623C13.1977 11.8512 12.895 11.3866 12.5083 10.997C12.1217 10.6074 11.6593 10.3011 11.1498 10.0971C10.6402 9.89303 10.0943 9.79553 9.54557 9.81058C8.99645 9.79749 8.45039 9.89618 7.94059 10.1007C7.43079 10.3051 6.96787 10.6111 6.57997 11C6.19207 11.3889 5.88729 11.8526 5.68414 12.3629C5.48098 12.8733 5.3837 13.4196 5.3982 13.9686C5.38354 14.5178 5.4807 15.0642 5.68379 15.5746C5.88689 16.085 6.19166 16.5488 6.57959 16.9378C6.96751 17.3267 7.43049 17.6327 7.94037 17.8372C8.45025 18.0416 8.99639 18.1402 9.54557 18.127C10.0943 18.1421 10.6402 18.0446 11.1498 17.8405C11.6594 17.6364 12.1218 17.3301 12.5084 16.9405C12.895 16.5509 13.1978 16.0862 13.3979 15.575C13.5981 15.0639 13.6914 14.5172 13.6722 13.9686Z" fill="#80C341"/>
<path d="M39.7427 13.9686C39.7427 10.5757 42.3003 8.09613 45.7084 8.09613C49.1185 8.09613 51.6742 10.5968 51.6742 13.9686C51.6742 17.3404 49.1185 19.8411 45.7084 19.8411C42.3003 19.8411 39.7427 17.3404 39.7427 13.9686ZM45.7085 18.127C46.2596 18.1459 46.8087 18.0512 47.3216 17.8489C47.8346 17.6466 48.3004 17.341 48.6903 16.951C49.0801 16.5611 49.3856 16.0951 49.5878 15.5821C49.7899 15.0691 49.8844 14.52 49.8653 13.9689C49.8665 13.4223 49.7599 12.8808 49.5516 12.3755C49.3432 11.8701 49.0373 11.4108 48.6512 11.0239C48.2651 10.6369 47.8065 10.3299 47.3016 10.1205C46.7967 9.91099 46.2555 9.80315 45.7089 9.80313C45.1622 9.80311 44.621 9.9109 44.1161 10.1203C43.6112 10.3298 43.1525 10.6367 42.7664 11.0236C42.3803 11.4106 42.0743 11.8698 41.8659 12.3752C41.6575 12.8805 41.5509 13.422 41.552 13.9686C41.5331 14.5196 41.6276 15.0687 41.8297 15.5816C42.0319 16.0946 42.3373 16.5605 42.7271 16.9505C43.1169 17.3404 43.5826 17.6461 44.0955 17.8485C44.6084 18.0509 45.1573 18.1457 45.7084 18.127L45.7085 18.127Z" fill="#80C341"/>
<path d="M0.0757009 10.5403C0.0757009 10.5403 0.484115 6.06565 4.42263 5.2673C8.36115 4.46895 14.4762 6.15256 14.4762 6.15256C14.4762 6.15256 11.886 4.35244 9.98164 3.76315C9.98164 3.76315 13.0208 2.31904 18.3108 1.50458C23.6007 0.690109 27.4551 0.418625 31.1252 1.74302C34.7953 3.06741 38.8226 4.93021 38.8226 4.93021L37.4826 5.21265C37.4826 5.21265 44.1324 5.34084 48.361 6.39514C52.5896 7.44944 54.9608 8.60582 54.9608 8.60582H52.9977L57.2485 11.7322L56.9738 9.07268C56.9613 8.95163 56.9228 8.83468 56.8611 8.72979C56.7994 8.62489 56.7159 8.5345 56.6161 8.46476C55.4456 7.64197 50.9153 5.01172 40.6018 4.80314C40.3828 4.79948 40.168 4.74255 39.9759 4.63728C38.4698 3.80437 31.2326 0 24.6918 0C17.347 0 9.008 2.45107 7.05384 2.9386C5.09968 3.42613 1.89543 4.22734 1.37605 4.30822C0.856671 4.38911 0.492569 4.37426 0.475278 4.90504C0.454312 5.35524 0.478071 5.80641 0.546206 6.25192C0.59943 6.47368 0.530239 6.52581 0.351941 6.85013C0.173644 7.17445 -0.146432 8.49512 0.0757009 10.5403Z" fill="#80C341"/>
<path d="M15.3736 5.62739C14.3681 4.93928 13.3171 4.32032 12.2277 3.77481C14.4103 3.02404 16.6573 2.47575 18.9404 2.1369C18.9404 2.1369 15.8197 3.03234 14.2815 3.67977C14.2815 3.67977 15.8963 4.73196 16.1158 4.85407C16.3353 4.97617 16.3625 5.08783 17.8882 5.13588C19.4139 5.18393 32.5158 5.49266 32.5158 5.49266C32.5158 5.49266 18.5536 5.93461 17.4802 5.93461C16.4069 5.93461 15.8748 5.88975 15.3736 5.62739Z" fill="#80C341"/>
<path d="M23.9457 19.8412C26.9907 19.8412 28.9345 17.8672 28.9345 14.8479V8.34274H27.1636V14.5624C27.1636 16.7536 25.9511 18.1272 23.9457 18.1272C21.9595 18.1272 20.7279 16.7725 20.7279 14.5624V8.34274H18.9567V14.8479C18.9567 17.8672 20.9201 19.8412 23.9457 19.8412Z" fill="black"/>
<path d="M32.9466 15.6613C32.9466 18.1005 34.4387 19.5943 36.8554 19.5943H38.3129V17.9564H37.0836C35.5522 17.9564 34.7178 17.1182 34.7178 15.604V9.94239H38.2469V8.34224H34.7179V5.96027H34.4406L30.9664 9.62545V9.94239H32.9466L32.9466 15.6613Z" fill="black"/>
<path d="M63.1629 15.747V4.46942H61.3917V15.8043C61.3917 18.2435 62.8837 19.7373 65.3005 19.7373H66.758V18.0994H65.5287C63.9973 18.0994 63.1629 17.2612 63.1629 15.747Z" fill="black"/>
<path d="M77.8244 10.2087C77.2753 9.57385 76.5928 9.06802 75.8256 8.72738C75.0584 8.38673 74.2255 8.21967 73.3863 8.23813C70.0597 8.23813 67.5628 10.7403 67.5628 14.1106C67.5628 17.4617 70.0597 19.9828 73.3863 19.9828C74.2202 20.0001 75.0477 19.8343 75.8106 19.4972C76.5734 19.16 77.253 18.6597 77.8015 18.0314L77.9883 19.7363H79.4554V8.48426H78.0453L77.8244 10.2087ZM73.5196 18.2687C72.9704 18.2819 72.4243 18.1833 71.9144 17.9788C71.4045 17.7744 70.9416 17.4684 70.5536 17.0794C70.1657 16.6905 69.8609 16.2267 69.6579 15.7163C69.4548 15.2058 69.3576 14.6595 69.3723 14.1103C69.3695 13.5652 69.4744 13.025 69.681 12.5206C69.8877 12.0162 70.192 11.5576 70.5764 11.1712C70.9608 10.7848 71.4178 10.4782 71.9211 10.2689C72.4245 10.0597 72.9642 9.95198 73.5092 9.95198C74.0543 9.95198 74.594 10.0597 75.0973 10.2689C75.6006 10.4782 76.0576 10.7848 76.4421 11.1712C76.8265 11.5576 77.1308 12.0162 77.3374 12.5206C77.5441 13.025 77.649 13.5652 77.6462 14.1103C77.6655 14.6589 77.5721 15.2056 77.372 15.7167C77.1718 16.2278 76.8691 16.6925 76.4824 17.0821C76.0958 17.4718 75.6334 17.7781 75.1239 17.9821C74.6143 18.1862 74.0683 18.2837 73.5196 18.2687Z" fill="black"/>
<path d="M86.6995 17.4362L82.879 8.48538H81.0297L85.897 19.7374H87.5085L92.2524 8.48538H90.4414L86.6995 17.4362Z" fill="black"/>
<path d="M102.935 10.2087C102.385 9.57385 101.703 9.06802 100.936 8.72738C100.169 8.38673 99.3357 8.21967 98.4965 8.23813C95.1698 8.23813 92.673 10.7403 92.673 14.1106C92.673 17.4617 95.1698 19.9828 98.4965 19.9828C99.3304 20.0001 100.158 19.8343 100.921 19.4972C101.684 19.16 102.363 18.6597 102.912 18.0314L103.099 19.7363H104.566V8.48426H103.155L102.935 10.2087ZM98.6298 18.2687C98.0806 18.2819 97.5345 18.1833 97.0246 17.9788C96.5147 17.7744 96.0517 17.4684 95.6638 17.0794C95.2759 16.6905 94.9711 16.2267 94.768 15.7163C94.5649 15.2058 94.4678 14.6595 94.4824 14.1103C94.4796 13.5652 94.5846 13.025 94.7912 12.5206C94.9978 12.0162 95.3021 11.5576 95.6866 11.1712C96.071 10.7848 96.528 10.4782 97.0313 10.2689C97.5346 10.0597 98.0743 9.95198 98.6194 9.95198C99.1645 9.95198 99.7042 10.0597 100.207 10.2689C100.711 10.4782 101.168 10.7848 101.552 11.1712C101.937 11.5576 102.241 12.0162 102.448 12.5206C102.654 13.025 102.759 13.5652 102.756 14.1103C102.776 14.6589 102.682 15.2056 102.482 15.7167C102.282 16.2278 101.979 16.6925 101.593 17.0821C101.206 17.4718 100.744 17.7781 100.234 17.9821C99.7245 18.1862 99.1785 18.2837 98.6298 18.2687Z" fill="black"/>
<path d="M116.625 10.2349C116.091 9.59802 115.422 9.08832 114.666 8.74294C113.91 8.39757 113.086 8.22522 112.255 8.23847C111.523 8.23051 110.796 8.3697 110.118 8.64779C109.44 8.92588 108.824 9.33721 108.308 9.85743C107.792 10.3776 107.385 10.9962 107.112 11.6764C106.84 12.3565 106.706 13.0846 106.72 13.8173C106.706 14.5491 106.84 15.2762 107.113 15.9553C107.386 16.6344 107.793 17.2516 108.309 17.7703C108.826 18.289 109.441 18.6986 110.119 18.9746C110.797 19.2507 111.523 19.3876 112.255 19.3772C113.016 19.39 113.772 19.2483 114.476 18.9607C115.181 18.673 115.82 18.2454 116.354 17.7037V18.3915C116.354 20.8861 114.821 22.3805 112.57 22.3805C110.93 22.3805 109.512 21.5823 109.011 20.1748H107.24C107.855 22.5628 109.811 23.9996 112.57 23.9996C115.994 23.9996 118.088 21.7907 118.088 18.1633V8.48523L116.906 8.48459L116.625 10.2349ZM112.446 17.682V17.6823C111.933 17.6878 111.425 17.5917 110.95 17.3994C110.475 17.2072 110.043 16.9227 109.679 16.5624C109.315 16.2021 109.026 15.7731 108.828 15.3003C108.631 14.8275 108.529 14.3203 108.529 13.808C108.529 13.2957 108.631 12.7885 108.828 12.3157C109.026 11.8429 109.315 11.414 109.679 11.0537C110.043 10.6933 110.475 10.4088 110.95 10.2166C111.425 10.0244 111.933 9.92819 112.446 9.93368C112.961 9.91626 113.474 10.0048 113.953 10.1937C114.433 10.3826 114.868 10.668 115.233 11.0321C115.597 11.3962 115.883 11.8313 116.073 12.3104C116.263 12.7896 116.352 13.3026 116.335 13.8176C116.35 14.3313 116.26 14.8426 116.069 15.3199C115.879 15.7972 115.592 16.2304 115.228 16.5926C114.863 16.9548 114.428 17.2383 113.95 17.4257C113.471 17.6131 112.959 17.7003 112.446 17.682Z" fill="black"/>
<path d="M130.149 10.2349C129.615 9.59802 128.946 9.08832 128.19 8.74294C127.434 8.39757 126.61 8.22522 125.779 8.23847C125.047 8.23051 124.32 8.3697 123.642 8.64779C122.964 8.92588 122.348 9.33721 121.832 9.85743C121.316 10.3776 120.909 10.9962 120.636 11.6764C120.364 12.3565 120.23 13.0846 120.244 13.8173C120.23 14.5491 120.364 15.2762 120.637 15.9553C120.91 16.6344 121.317 17.2516 121.833 17.7703C122.35 18.289 122.965 18.6986 123.643 18.9746C124.321 19.2507 125.047 19.3876 125.779 19.3772C126.54 19.39 127.296 19.2483 128 18.9607C128.705 18.673 129.344 18.2454 129.878 17.7037V18.3915C129.878 20.8861 128.345 22.3805 126.095 22.3805C124.454 22.3805 123.036 21.5823 122.535 20.1748H120.764C121.379 22.5628 123.335 23.9996 126.095 23.9996C129.518 23.9996 131.612 21.7907 131.612 18.1633V8.48523L130.43 8.48459L130.149 10.2349ZM125.97 17.682V17.6823C125.457 17.6878 124.949 17.5917 124.474 17.3994C123.999 17.2072 123.567 16.9227 123.203 16.5624C122.839 16.2021 122.55 15.7731 122.352 15.3003C122.155 14.8275 122.053 14.3203 122.053 13.808C122.053 13.2957 122.155 12.7885 122.352 12.3157C122.55 11.8429 122.839 11.414 123.203 11.0537C123.567 10.6933 123.999 10.4088 124.474 10.2166C124.949 10.0244 125.457 9.92819 125.97 9.93368C126.485 9.91626 126.998 10.0048 127.477 10.1937C127.957 10.3826 128.392 10.668 128.757 11.0321C129.121 11.3962 129.407 11.8313 129.597 12.3104C129.787 12.7896 129.876 13.3026 129.859 13.8176C129.874 14.3313 129.784 14.8426 129.593 15.3199C129.403 15.7972 129.116 16.2304 128.752 16.5926C128.387 16.9548 127.952 17.2383 127.474 17.4257C126.995 17.6131 126.483 17.7003 125.97 17.682Z" fill="black"/>
<path d="M136.427 8.48538H134.656V19.7374H136.427V8.48538Z" fill="black"/>
<path d="M144.545 8.23981C141.137 8.23981 138.579 10.7194 138.579 14.1123C138.579 17.4841 141.137 19.9848 144.545 19.9848C147.955 19.9848 150.511 17.4841 150.511 14.1123C150.511 10.7404 147.955 8.23981 144.545 8.23981ZM144.545 18.2706H144.545C143.994 18.2893 143.445 18.1945 142.932 17.9921C142.419 17.7897 141.953 17.4841 141.564 17.0941C141.174 16.7042 140.868 16.2382 140.666 15.7253C140.464 15.2123 140.37 14.6633 140.388 14.1123C140.387 13.5657 140.494 13.0243 140.703 12.5191C140.911 12.0138 141.217 11.5547 141.603 11.1678C141.989 10.781 142.448 10.4741 142.953 10.2647C143.458 10.0553 143.999 9.94756 144.545 9.94758C145.092 9.9476 145.633 10.0554 146.138 10.2648C146.643 10.4743 147.101 10.7812 147.487 11.168C147.873 11.5549 148.179 12.0141 148.388 12.5194C148.596 13.0246 148.703 13.566 148.702 14.1126C148.721 14.6636 148.626 15.2127 148.424 15.7257C148.222 16.2387 147.917 16.7047 147.527 17.0946C147.137 17.4846 146.671 17.7902 146.158 17.9925C145.645 18.1948 145.096 18.2895 144.545 18.2707L144.545 18.2706Z" fill="black"/>
<path d="M135.598 4.18411C135.365 4.18411 135.138 4.25311 134.944 4.3824C134.751 4.51168 134.6 4.69544 134.511 4.91044C134.422 5.12543 134.399 5.36201 134.444 5.59025C134.489 5.81849 134.602 6.02814 134.766 6.1927C134.931 6.35725 135.14 6.46932 135.368 6.51472C135.597 6.56012 135.833 6.53682 136.048 6.44777C136.263 6.35872 136.447 6.20791 136.576 6.01442C136.706 5.82093 136.775 5.59345 136.775 5.36074C136.775 5.04868 136.651 4.74941 136.43 4.52875C136.209 4.30809 135.91 4.18412 135.598 4.18411Z" fill="black"/>
</svg>
