<svg width="324" height="143" viewBox="0 0 324 143" fill="none" xmlns="http://www.w3.org/2000/svg">
<path d="M56.1211 30.2409V71.0304H50.803L50.1259 64.8498C48.1375 67.1274 45.6738 68.9413 42.9084 70.1635C40.143 71.3857 37.1432 71.9866 34.1204 71.9238C22.061 71.9238 13.0098 62.7847 13.0098 50.6368C13.0098 38.4194 22.061 29.3487 34.1204 29.3487C37.1626 29.2818 40.182 29.8874 42.963 31.1223C45.744 32.3571 48.2181 34.1908 50.2086 36.4923L51.0095 30.241L56.1211 30.2409ZM49.5629 50.6357C49.6325 48.6471 49.2941 46.6654 48.5685 44.8127C47.8428 42.9599 46.7454 41.2755 45.3438 39.8632C43.9421 38.4509 42.2661 37.3407 40.4189 36.601C38.5718 35.8613 36.5926 35.5078 34.6036 35.5624C32.613 35.515 30.6336 35.8727 28.7855 36.6139C26.9374 37.3551 25.2593 38.4643 23.8532 39.8741C22.447 41.2839 21.3421 42.9648 20.6057 44.8148C19.8692 46.6648 19.5166 48.6452 19.5692 50.6357C19.516 52.6263 19.8682 54.6071 20.6045 56.4574C21.3407 58.3077 22.4455 59.9889 23.8518 61.3989C25.258 62.8089 26.9363 63.9182 28.7847 64.6593C30.6331 65.4005 32.6128 65.758 34.6036 65.7101C36.5927 65.7646 38.5719 65.4111 40.4191 64.6713C42.2664 63.9315 43.9425 62.8212 45.3441 61.4088C46.7457 59.9964 47.8432 58.3118 48.5687 56.459C49.2943 54.6061 49.6326 52.6243 49.5629 50.6357Z" fill="#80C341"/>
<path d="M144.07 50.6358C144.07 38.3362 153.341 29.3477 165.696 29.3477C178.057 29.3477 187.322 38.4126 187.322 50.6358C187.322 62.8589 178.057 71.9239 165.696 71.9239C153.341 71.9239 144.07 62.8589 144.07 50.6358ZM165.696 65.7102C167.694 65.7786 169.684 65.4355 171.544 64.7021C173.403 63.9688 175.092 62.8609 176.505 61.4472C177.918 60.0336 179.026 58.3445 179.759 56.4848C180.491 54.6251 180.834 52.6346 180.765 50.6369C180.769 48.6554 180.383 46.6925 179.627 44.8605C178.872 43.0286 177.763 41.3636 176.363 39.9609C174.964 38.5582 173.301 37.4453 171.471 36.686C169.641 35.9266 167.679 35.5357 165.697 35.5356C163.716 35.5356 161.754 35.9263 159.923 36.6855C158.093 37.4447 156.431 38.5575 155.031 39.9601C153.631 41.3627 152.522 43.0276 151.767 44.8595C151.011 46.6913 150.624 48.6542 150.629 50.6357C150.56 52.6332 150.903 54.6235 151.635 56.483C152.368 58.3425 153.475 60.0315 154.888 61.4452C156.301 62.8588 157.99 63.9668 159.849 64.7005C161.708 65.4342 163.698 65.7779 165.696 65.7101L165.696 65.7102Z" fill="#80C341"/>
<path d="M0.274421 38.2093C0.274421 38.2093 1.75495 21.9884 16.0323 19.0943C30.3097 16.2002 52.4772 22.3034 52.4772 22.3034C52.4772 22.3034 43.0874 15.7779 36.1841 13.6417C36.1841 13.6417 47.2013 8.40668 66.3777 5.45418C85.554 2.50169 99.5265 1.51754 112.831 6.31855C126.135 11.1196 140.734 17.8723 140.734 17.8723L135.877 18.8962C135.877 18.8962 159.983 19.3609 175.312 23.1828C190.641 27.0047 199.237 31.1966 199.237 31.1966H192.12L207.53 42.53L206.534 32.8891C206.488 32.4502 206.349 32.0263 206.125 31.646C205.902 31.2658 205.599 30.9381 205.237 30.6853C200.994 27.7027 184.571 18.1678 147.184 17.4117C146.39 17.3984 145.612 17.1921 144.915 16.8104C139.456 13.7911 113.22 0 89.5094 0C62.884 0 32.6546 8.88527 25.5706 10.6526C18.4867 12.4199 6.87107 15.3244 4.98828 15.6176C3.10549 15.9108 1.7856 15.857 1.72291 17.7811C1.64691 19.4131 1.73304 21.0486 1.98003 22.6636C2.17297 23.4675 1.92215 23.6565 1.27581 24.8322C0.629469 26.0079 -0.530827 30.7953 0.274421 38.2093Z" fill="#80C341"/>
<path d="M55.7297 20.3993C52.0849 17.9049 48.2748 15.6611 44.3257 13.6836C52.2376 10.962 60.3833 8.97445 68.6596 7.74609C68.6596 7.74609 57.347 10.9921 51.771 13.3391C51.771 13.3391 57.6245 17.1533 58.4202 17.596C59.2159 18.0386 59.3147 18.4434 64.8454 18.6176C70.376 18.7918 117.871 19.9109 117.871 19.9109C117.871 19.9109 67.2574 21.513 63.3664 21.513C59.4754 21.513 57.5468 21.3504 55.7297 20.3993Z" fill="#80C341"/>
<path d="M86.8042 71.926C97.8424 71.926 104.889 64.7699 104.889 53.8246V30.2432H98.4694V52.7898C98.4694 60.7331 94.0738 65.7123 86.8042 65.7123C79.6041 65.7123 75.1395 60.8016 75.1395 52.7898V30.2432H68.7188V53.8247C68.7188 64.7699 75.8361 71.926 86.8042 71.926Z" fill="black"/>
<path d="M119.433 56.7722C119.433 65.6147 124.842 71.0297 133.603 71.0297H138.886V65.0922H134.43C128.879 65.0922 125.854 62.0538 125.854 56.5646V36.0409H138.647V30.2403H125.854V21.6055H124.849L112.255 34.892V36.0409H119.433L119.433 56.7722Z" fill="black"/>
<path d="M6.42077 112.882V72H0V113.09C0 121.932 5.40874 127.347 14.1696 127.347H19.4535V121.409H14.9969C9.44547 121.409 6.42077 118.371 6.42077 112.882Z" fill="black"/>
<path d="M59.5708 92.8029C57.5804 90.5013 55.1063 88.6677 52.3253 87.4328C49.5442 86.198 46.5249 85.5924 43.4827 85.6593C31.4233 85.6593 22.3721 94.73 22.3721 106.947C22.3721 119.095 31.4233 128.234 43.4827 128.234C46.5055 128.297 49.5053 127.696 52.2707 126.474C55.0361 125.252 57.4998 123.438 59.4882 121.16L60.1653 127.341H65.4834V86.5515H60.3719L59.5708 92.8029ZM43.9659 122.021C41.9751 122.069 39.9953 121.711 38.147 120.97C36.2986 120.229 34.6203 119.12 33.2141 117.71C31.8078 116.3 30.703 114.618 29.9667 112.768C29.2305 110.918 28.8783 108.937 28.9315 106.946C28.9213 104.97 29.3017 103.012 30.0508 101.184C30.7999 99.3551 31.9029 97.6927 33.2965 96.2919C34.6901 94.8912 36.3468 93.7796 38.1713 93.0211C39.9959 92.2626 41.9523 91.8721 43.9283 91.8721C45.9042 91.8721 47.8607 92.2626 49.6852 93.0211C51.5098 93.7796 53.1664 94.8912 54.56 96.2919C55.9536 97.6927 57.0567 99.3551 57.8058 101.184C58.5549 103.012 58.9353 104.97 58.9251 106.946C58.9949 108.935 58.6566 110.917 57.931 112.77C57.2054 114.622 56.108 116.307 54.7063 117.719C53.3047 119.132 51.6286 120.242 49.7814 120.982C47.9342 121.722 45.955 122.075 43.9659 122.021Z" fill="black"/>
<path d="M91.7435 119.004L77.8939 86.5566H71.1899L88.8343 127.346H94.6761L111.873 86.5566H105.308L91.7435 119.004Z" fill="black"/>
<path d="M150.596 92.8029C148.605 90.5013 146.131 88.6677 143.35 87.4328C140.569 86.198 137.55 85.5924 134.508 85.6593C122.448 85.6593 113.397 94.73 113.397 106.947C113.397 119.095 122.448 128.234 134.508 128.234C137.53 128.297 140.53 127.696 143.296 126.474C146.061 125.252 148.525 123.438 150.513 121.16L151.19 127.341H156.508V86.5515H151.397L150.596 92.8029ZM134.991 122.021C133 122.069 131.02 121.711 129.172 120.97C127.324 120.229 125.645 119.12 124.239 117.71C122.833 116.3 121.728 114.618 120.992 112.768C120.255 110.918 119.903 108.937 119.956 106.946C119.946 104.97 120.327 103.012 121.076 101.184C121.825 99.3551 122.928 97.6927 124.321 96.2919C125.715 94.8912 127.372 93.7796 129.196 93.0211C131.021 92.2626 132.977 91.8721 134.953 91.8721C136.929 91.8721 138.886 92.2626 140.71 93.0211C142.535 93.7796 144.191 94.8912 145.585 96.2919C146.979 97.6927 148.082 99.3551 148.831 101.184C149.58 103.012 149.96 104.97 149.95 106.946C150.02 108.935 149.681 110.917 148.956 112.77C148.23 114.622 147.133 116.307 145.731 117.719C144.33 119.132 142.654 120.242 140.806 120.982C138.959 121.722 136.98 122.075 134.991 122.021Z" fill="black"/>
<path d="M200.224 92.8969C198.288 90.5882 195.862 88.7405 193.122 87.4885C190.382 86.2365 187.397 85.6118 184.385 85.6598C181.728 85.631 179.093 86.1355 176.635 87.1436C174.177 88.1517 171.946 89.6428 170.075 91.5286C168.204 93.4144 166.73 95.6566 165.741 98.1223C164.752 100.588 164.268 103.227 164.317 105.883C164.268 108.536 164.753 111.172 165.743 113.634C166.732 116.096 168.207 118.333 170.079 120.213C171.951 122.094 174.182 123.578 176.64 124.579C179.097 125.58 181.73 126.076 184.384 126.039C187.142 126.085 189.881 125.571 192.435 124.528C194.989 123.486 197.305 121.936 199.242 119.972V122.465C199.242 131.508 193.686 136.926 185.527 136.926C179.581 136.926 174.441 134.032 172.624 128.93H166.203C168.434 137.586 175.524 142.795 185.527 142.795C197.937 142.795 205.527 134.787 205.527 121.638V86.5543L201.242 86.552L200.224 92.8969ZM185.074 119.893V119.894C183.217 119.914 181.374 119.566 179.653 118.869C177.931 118.172 176.365 117.141 175.045 115.834C173.725 114.528 172.677 112.973 171.961 111.259C171.246 109.546 170.878 107.707 170.878 105.85C170.878 103.993 171.246 102.154 171.961 100.44C172.677 98.7262 173.725 97.1712 175.045 95.865C176.365 94.5589 177.931 93.5275 179.653 92.8306C181.374 92.1337 183.217 91.7852 185.074 91.805C186.941 91.7419 188.801 92.0627 190.539 92.7476C192.277 93.4325 193.856 94.467 195.178 95.7869C196.5 97.1068 197.536 98.684 198.224 100.421C198.912 102.158 199.235 104.017 199.175 105.885C199.229 107.747 198.901 109.6 198.21 111.331C197.519 113.061 196.481 114.631 195.159 115.944C193.838 117.257 192.261 118.285 190.526 118.964C188.791 119.643 186.936 119.96 185.074 119.893Z" fill="black"/>
<path d="M249.249 92.8969C247.314 90.5882 244.887 88.7405 242.147 87.4885C239.407 86.2365 236.422 85.6118 233.41 85.6598C230.754 85.631 228.118 86.1355 225.66 87.1436C223.202 88.1517 220.972 89.6428 219.1 91.5286C217.229 93.4144 215.755 95.6566 214.766 98.1223C213.777 100.588 213.293 103.227 213.343 105.883C213.293 108.536 213.778 111.172 214.768 113.634C215.758 116.095 217.232 118.333 219.105 120.213C220.977 122.094 223.208 123.578 225.665 124.579C228.122 125.58 230.756 126.076 233.409 126.039C236.167 126.085 238.906 125.571 241.46 124.528C244.014 123.486 246.33 121.936 248.268 119.972V122.465C248.268 131.508 242.711 136.926 234.552 136.926C228.607 136.926 223.467 134.032 221.649 128.93H215.229C217.459 137.586 224.549 142.795 234.552 142.795C246.962 142.795 254.552 134.787 254.552 121.638V86.5543L250.268 86.552L249.249 92.8969ZM234.099 119.893V119.894C232.242 119.914 230.4 119.566 228.678 118.869C226.957 118.172 225.391 117.141 224.07 115.834C222.75 114.528 221.702 112.973 220.987 111.259C220.271 109.546 219.903 107.707 219.903 105.85C219.903 103.993 220.271 102.154 220.987 100.44C221.702 98.7262 222.75 97.1712 224.07 95.865C225.391 94.5589 226.957 93.5275 228.678 92.8306C230.4 92.1337 232.242 91.7852 234.099 91.805C235.966 91.7419 237.826 92.0627 239.564 92.7476C241.302 93.4325 242.881 94.467 244.203 95.7869C245.525 97.1068 246.562 98.684 247.249 100.421C247.937 102.158 248.261 104.017 248.2 105.885C248.255 107.747 247.926 109.6 247.235 111.331C246.545 113.061 245.506 114.631 244.185 115.944C242.863 117.257 241.286 118.285 239.551 118.964C237.817 119.643 235.961 119.96 234.099 119.893Z" fill="black"/>
<path d="M272.008 86.5566H265.587V127.346H272.008V86.5566Z" fill="black"/>
<path d="M301.436 85.668C289.082 85.668 279.81 94.6565 279.81 106.956C279.81 119.179 289.082 128.244 301.436 128.244C313.797 128.244 323.062 119.179 323.062 106.956C323.062 94.7329 313.797 85.668 301.436 85.668ZM301.437 122.03H301.436C299.438 122.098 297.448 121.754 295.589 121.021C293.73 120.287 292.041 119.179 290.628 117.765C289.215 116.352 288.108 114.663 287.375 112.803C286.642 110.944 286.3 108.954 286.368 106.956C286.364 104.975 286.751 103.012 287.507 101.181C288.263 99.3491 289.372 97.6845 290.772 96.2822C292.171 94.8799 293.834 93.7674 295.664 93.0084C297.494 92.2493 299.456 91.8587 301.437 91.8588C303.418 91.8588 305.38 92.2497 307.21 93.0088C309.04 93.768 310.703 94.8806 312.102 96.283C313.502 97.6854 314.611 99.3501 315.366 101.182C316.122 103.013 316.509 104.976 316.505 106.957C316.574 108.955 316.231 110.945 315.498 112.805C314.766 114.665 313.658 116.354 312.245 117.767C310.832 119.181 309.144 120.289 307.284 121.022C305.425 121.756 303.435 122.099 301.437 122.031L301.437 122.03Z" fill="black"/>
</svg>
