<svg width="40" height="32" viewBox="0 0 40 32" fill="none" xmlns="http://www.w3.org/2000/svg">
<path d="M31.6974 0.160059C31.5534 0.304059 31.5374 0.424059 31.5374 1.28006C31.5374 2.40006 31.6174 2.56006 32.1774 2.56006C32.7374 2.56006 32.8174 2.40006 32.8174 1.28006C32.8174 0.160059 32.7374 5.87702e-05 32.1774 5.87702e-05C31.9614 5.87702e-05 31.8014 0.0560588 31.6974 0.160059Z" fill="#80C341"/>
<path d="M22.1054 1.432C22.0174 1.52 21.9294 1.728 21.8974 1.896C21.5934 3.912 21.0174 5.832 20.2174 7.496C19.3534 9.304 18.3614 10.68 16.9694 12.048C14.9694 13.992 12.9934 15.072 9.75341 15.96C9.34541 16.072 9.27341 16.12 9.16941 16.36C9.07341 16.608 9.07341 16.672 9.16941 16.92C9.27341 17.16 9.34541 17.208 9.75341 17.32C11.2094 17.72 12.3934 18.16 13.4494 18.688C16.4414 20.2 18.6174 22.44 20.1774 25.624C21.0254 27.344 21.5694 29.176 21.8974 31.384C21.9614 31.8 22.1774 32 22.5774 32C22.9774 32 23.1934 31.8 23.2574 31.384C23.6094 29.088 24.1534 27.328 25.0974 25.44C25.8494 23.936 26.7614 22.672 27.9614 21.448C29.9694 19.408 32.0814 18.232 35.4014 17.32C35.8094 17.208 35.8814 17.16 35.9854 16.92C36.0814 16.672 36.0814 16.608 35.9854 16.36C35.8814 16.12 35.8094 16.072 35.4014 15.96C33.9294 15.56 32.7534 15.12 31.6974 14.584C28.6974 13.064 26.5374 10.84 24.9774 7.656C24.1294 5.936 23.5854 4.104 23.2574 1.896C23.1934 1.48 22.9774 1.28 22.5774 1.28C22.3694 1.28 22.2014 1.336 22.1054 1.432ZM22.8094 5.936C23.2414 7.28 24.1454 9.128 24.9934 10.4C26.7774 13.064 29.3054 15.16 32.1614 16.32C32.5214 16.472 32.8174 16.616 32.8174 16.64C32.8174 16.664 32.5214 16.808 32.1614 16.952C28.5614 18.4 25.4974 21.384 23.6734 25.208C23.3214 25.952 22.8014 27.272 22.6974 27.696C22.6654 27.824 22.6174 27.92 22.5854 27.92C22.5534 27.92 22.4414 27.656 22.3454 27.336C22.2414 27.024 21.9854 26.352 21.7694 25.856C19.9934 21.712 16.8654 18.536 13.0014 16.96C12.6334 16.808 12.3374 16.664 12.3374 16.64C12.3374 16.616 12.7214 16.432 13.1934 16.24C15.9054 15.104 18.4414 12.976 20.1614 10.4C21.0254 9.096 21.9054 7.304 22.3454 5.936C22.4414 5.624 22.5534 5.36 22.5774 5.36C22.6014 5.36 22.7134 5.624 22.8094 5.936Z" fill="#80C341"/>
<path d="M5.46538 2.71205C5.37738 2.80005 5.27338 3.07205 5.21738 3.33605C4.94538 4.69605 3.96938 5.95205 2.72938 6.54405C2.36138 6.72005 1.92938 6.88805 1.77738 6.92005C1.14538 7.04005 0.961381 7.13605 0.849382 7.40005C0.769382 7.60805 0.761382 7.72805 0.825382 7.91205C0.929382 8.21605 1.03338 8.27205 1.72938 8.44005C3.04938 8.74405 4.22538 9.68005 4.80138 10.888C4.97738 11.256 5.16938 11.768 5.21738 12.024C5.33738 12.608 5.51338 12.8 5.93738 12.8C6.36138 12.8 6.53738 12.608 6.65738 12.024C7.00938 10.272 8.52938 8.75205 10.2814 8.40005C10.8654 8.28005 11.0574 8.10405 11.0574 7.68005C11.0574 7.24005 10.8734 7.08805 10.1854 6.92805C8.47338 6.54405 7.07338 5.14405 6.68938 3.43205C6.61738 3.12005 6.48938 2.79205 6.40938 2.71205C6.20138 2.50405 5.66538 2.51205 5.46538 2.71205ZM6.16138 5.68005C6.43338 6.16005 7.24138 6.99205 7.77738 7.33605C8.04138 7.50405 8.25738 7.65605 8.25738 7.68005C8.25738 7.70405 8.04138 7.85605 7.77738 8.02405C7.24138 8.36805 6.43338 9.20005 6.16138 9.68005C6.05738 9.85605 5.96138 10 5.93738 10C5.91338 10 5.81738 9.85605 5.71338 9.68005C5.44138 9.20005 4.57738 8.32005 4.06538 8.00005C3.81738 7.84805 3.61738 7.70405 3.61738 7.68005C3.61738 7.65605 3.83338 7.50405 4.09738 7.33605C4.63338 6.99205 5.44138 6.16005 5.71338 5.68005C5.81738 5.50405 5.91338 5.36005 5.93738 5.36005C5.96138 5.36005 6.05738 5.50405 6.16138 5.68005Z" fill="#80C341"/>
<path d="M29.1374 2.72009C29.0334 2.82409 28.9774 2.98409 28.9774 3.20009C28.9774 3.76009 29.1374 3.84009 30.2574 3.84009C31.3774 3.84009 31.5374 3.76009 31.5374 3.20009C31.5374 2.64009 31.3774 2.56009 30.2574 2.56009C29.4014 2.56009 29.2814 2.57609 29.1374 2.72009Z" fill="#80C341"/>
<path d="M32.9774 2.72009C32.8734 2.82409 32.8174 2.98409 32.8174 3.20009C32.8174 3.76009 32.9774 3.84009 34.0974 3.84009C35.2174 3.84009 35.3774 3.76009 35.3774 3.20009C35.3774 2.64009 35.2174 2.56009 34.0974 2.56009C33.2414 2.56009 33.1214 2.57609 32.9774 2.72009Z" fill="#80C341"/>
<path d="M31.6974 3.9999C31.5534 4.1439 31.5374 4.2639 31.5374 5.1199C31.5374 6.2399 31.6174 6.3999 32.1774 6.3999C32.7374 6.3999 32.8174 6.2399 32.8174 5.1199C32.8174 3.9999 32.7374 3.8399 32.1774 3.8399C31.9614 3.8399 31.8014 3.8959 31.6974 3.9999Z" fill="#80C341"/>
<path d="M33.6254 20.632C33.5374 20.72 33.4334 20.992 33.3774 21.256C33.1054 22.616 32.1294 23.872 30.8894 24.464C30.5214 24.64 30.0894 24.808 29.9374 24.84C29.3054 24.96 29.1214 25.056 29.0094 25.32C28.9294 25.528 28.9214 25.648 28.9854 25.832C29.0894 26.136 29.1934 26.192 29.8894 26.36C31.2094 26.664 32.3854 27.6 32.9614 28.808C33.1374 29.176 33.3294 29.688 33.3774 29.944C33.4974 30.528 33.6734 30.72 34.0974 30.72C34.5214 30.72 34.6974 30.528 34.8174 29.944C35.1694 28.192 36.6894 26.672 38.4414 26.32C39.0254 26.2 39.2174 26.024 39.2174 25.6C39.2174 25.16 39.0334 25.008 38.3454 24.848C36.6334 24.464 35.2334 23.064 34.8494 21.352C34.7774 21.04 34.6494 20.712 34.5694 20.632C34.3614 20.424 33.8254 20.432 33.6254 20.632ZM34.3214 23.6C34.5934 24.08 35.4014 24.912 35.9374 25.256C36.2014 25.424 36.4174 25.576 36.4174 25.6C36.4174 25.624 36.2014 25.776 35.9374 25.944C35.4014 26.288 34.5934 27.12 34.3214 27.6C34.2174 27.776 34.1214 27.92 34.0974 27.92C34.0734 27.92 33.9774 27.776 33.8734 27.6C33.6014 27.12 32.7374 26.24 32.2254 25.92C31.9774 25.768 31.7774 25.624 31.7774 25.6C31.7774 25.576 31.9934 25.424 32.2574 25.256C32.7934 24.912 33.6014 24.08 33.8734 23.6C33.9774 23.424 34.0734 23.28 34.0974 23.28C34.1214 23.28 34.2174 23.424 34.3214 23.6Z" fill="#80C341"/>
<path d="M8.65744 23.2001C8.51344 23.3441 8.49744 23.4641 8.49744 24.3201C8.49744 25.4401 8.57744 25.6001 9.13744 25.6001C9.69744 25.6001 9.77744 25.4401 9.77744 24.3201C9.77744 23.2001 9.69744 23.0401 9.13744 23.0401C8.92144 23.0401 8.76144 23.0961 8.65744 23.2001Z" fill="#80C341"/>
<path d="M6.09738 25.7599C5.99338 25.8639 5.93738 26.0239 5.93738 26.2399C5.93738 26.7999 6.09738 26.8799 7.21738 26.8799C8.33738 26.8799 8.49738 26.7999 8.49738 26.2399C8.49738 25.6799 8.33738 25.5999 7.21738 25.5999C6.36138 25.5999 6.24138 25.6159 6.09738 25.7599Z" fill="#80C341"/>
<path d="M9.93734 25.7599C9.83334 25.8639 9.77734 26.0239 9.77734 26.2399C9.77734 26.7999 9.93734 26.8799 11.0573 26.8799C12.1773 26.8799 12.3373 26.7999 12.3373 26.2399C12.3373 25.6799 12.1773 25.5999 11.0573 25.5999C10.2013 25.5999 10.0813 25.6159 9.93734 25.7599Z" fill="#80C341"/>
<path d="M8.65744 27.0399C8.51344 27.1839 8.49744 27.3039 8.49744 28.1599C8.49744 29.2799 8.57744 29.4399 9.13744 29.4399C9.69744 29.4399 9.77744 29.2799 9.77744 28.1599C9.77744 27.0399 9.69744 26.8799 9.13744 26.8799C8.92144 26.8799 8.76144 26.9359 8.65744 27.0399Z" fill="#80C341"/>
</svg>
