<svg width="31" height="30" viewBox="0 0 31 30" fill="none" xmlns="http://www.w3.org/2000/svg">
<path d="M12.0523 0.299024C6.17873 1.45047 1.44912 6.18574 0.29893 12.0586C-1.4383 20.9145 4.61372 28.7898 12.8128 29.9777C14.0076 30.1592 15.0861 29.2072 15.0861 27.9985L15.0861 27.9568C15.0861 26.9676 14.3671 26.1417 13.3992 25.9933C8.09761 25.1775 4.02166 20.5799 4.02166 15.0445C4.02166 8.57706 9.59097 3.38549 16.1772 4.0203C21.9307 4.57773 26.1456 9.75554 26.1456 15.5348V16.5505C26.1456 17.9389 25.018 19.0677 23.6315 19.0677C22.245 19.0677 21.1168 17.9389 21.1168 16.5505V9.00194C21.1168 8.44589 20.6667 7.99505 20.1105 7.99505L18.1005 7.99528C17.6417 7.99528 17.2709 8.30904 17.1502 8.72939C15.5883 7.96574 13.7411 7.69988 11.7411 8.40847C9.30563 9.27143 7.45966 11.4826 7.10769 14.0425C6.51167 18.3799 9.86124 22.0876 14.078 22.0876C15.7398 22.0876 17.2476 21.4877 18.4518 20.5238C19.9603 22.4911 22.5517 23.5841 25.3279 22.8801C28.2304 22.2073 30.1662 19.3664 30.1096 16.4187V15.1051C30.1096 5.72755 21.6937 -1.59043 12.0523 0.299024ZM14.0195 18.122C12.3558 18.122 11.0026 16.7669 11.0026 15.1019C11.0026 13.437 12.3558 12.0819 14.0195 12.0819C15.6832 12.0819 17.0364 13.437 17.0364 15.1019C17.0364 16.7669 15.7417 18.122 14.0195 18.122Z" fill="#80C341"/>
</svg>
