<svg width="41" height="32" viewBox="0 0 41 32" fill="none" xmlns="http://www.w3.org/2000/svg">
<path d="M35.2252 0.148423C34.3105 0.488197 33.5699 1.15903 33.1256 2.07381C32.9078 2.51813 32.8904 2.6401 32.8904 3.59843C32.8904 4.57419 32.9078 4.67874 33.143 5.16662C33.4741 5.83745 34.2233 6.5867 34.8942 6.91776C35.3821 7.15299 35.4866 7.17041 36.4624 7.17041C37.4381 7.17041 37.5427 7.15299 38.0305 6.91776C38.318 6.77836 38.7711 6.43859 39.0412 6.17723C39.3025 5.90715 39.6423 5.45412 39.7817 5.16662C40.0169 4.67874 40.0343 4.57419 40.0343 3.59843C40.0343 2.62267 40.0169 2.51813 39.7817 2.03025C39.4506 1.35941 38.7014 0.610167 38.0305 0.287817C37.5775 0.0700139 37.3858 0.0351653 36.593 0.00902885C35.8612 -0.0171076 35.5911 0.00902885 35.2252 0.148423ZM37.4904 1.49881C37.926 1.7079 38.5358 2.40487 38.6665 2.84048C38.9453 3.75525 38.7449 4.54806 38.0741 5.21018C37.5514 5.74162 37.1593 5.90715 36.4624 5.90715C35.8525 5.90715 35.4082 5.74162 34.9639 5.34957C33.9707 4.46965 33.8661 3.04085 34.7374 2.07381C35.4692 1.26358 36.5233 1.03706 37.4904 1.49881Z" fill="#80C341"/>
<path d="M4.87213 2.7096C3.80054 3.07551 3.02516 3.84218 2.60698 4.93991C2.45887 5.34938 2.43273 5.56719 2.45887 6.29901C2.50243 7.3706 2.72895 7.93689 3.41721 8.66C4.86342 10.1846 7.25055 10.1846 8.69676 8.66C8.94942 8.38992 9.26305 7.9456 9.39374 7.67553C9.60283 7.22249 9.62896 7.07439 9.62896 6.16832C9.62896 5.30582 9.60283 5.10544 9.42858 4.73082C9.11495 4.03385 8.7926 3.6418 8.25245 3.23233C7.27669 2.51794 6.00471 2.32627 4.87213 2.7096ZM6.81494 3.95544C8.11305 4.39105 8.75775 5.95923 8.13919 7.19636C7.72972 8.02401 6.98918 8.46833 6.05698 8.46833C4.72403 8.46833 3.74827 7.50128 3.74827 6.16832C3.74827 4.54787 5.29032 3.43271 6.81494 3.95544Z" fill="#80C341"/>
<path d="M16.076 6.90032C13.7411 7.44047 11.8158 8.97381 10.8487 11.0734C10.265 12.3367 10.0298 13.7568 10.1953 15.081C10.6396 18.7663 13.5408 21.5193 17.2086 21.7371C17.984 21.7807 18.3237 21.7545 19.5173 21.5454C19.8135 21.4932 19.8309 21.5019 20.0662 21.9636C20.8415 23.4708 22.5404 24.7776 24.3612 25.2568C25.3196 25.5095 26.8703 25.5095 27.8374 25.2568C30.3639 24.586 32.2457 22.6867 32.8991 20.1515C33.1082 19.3325 33.1082 17.6685 32.9079 16.8931C32.5245 15.4731 32.0105 14.567 31.0173 13.5738C30.181 12.7462 29.3794 12.2496 28.273 11.8575C27.6196 11.631 27.4802 11.6223 26.1298 11.6136H24.6923L24.4832 11.1431C23.9866 10.0106 22.9063 8.72987 21.8434 8.00676C21.2946 7.63214 20.4669 7.2488 19.7264 7.031C18.9423 6.79577 16.8601 6.71736 16.076 6.90032ZM19.3953 8.30297C20.9548 8.756 22.4446 9.98441 23.1503 11.4132C24.0912 13.3299 24.0999 15.142 23.159 17.0587C22.6885 18.017 21.5385 19.2019 20.6063 19.6897C19.5173 20.2473 18.8377 20.4128 17.6006 20.4041C16.6684 20.4041 16.4158 20.3693 15.8146 20.1689C14.8389 19.8466 14.0983 19.3848 13.323 18.6269C10.0123 15.3598 11.3192 9.8276 15.7624 8.34653C16.7904 8.00676 18.3063 7.98062 19.3953 8.30297ZM27.881 13.1382C28.7696 13.4344 29.3533 13.809 30.1026 14.567C31.2177 15.6909 31.7404 16.9541 31.7404 18.4962C31.7404 19.4284 31.5575 20.1689 31.1306 21.0488C30.5382 22.2598 29.2139 23.4011 27.881 23.8629C27.1056 24.1242 25.6158 24.1939 24.8317 23.9935C23.9866 23.7844 22.9412 23.2356 22.3313 22.6867C21.8173 22.2163 21.0855 21.2492 21.0855 21.0314C21.0855 20.9791 21.2597 20.8397 21.4688 20.7265C22.5491 20.1602 23.7427 18.8708 24.3612 17.625C24.9537 16.4227 25.1192 15.6909 25.1279 14.1837L25.1366 12.9204L25.6158 12.8768C26.3128 12.8159 27.2363 12.9204 27.881 13.1382Z" fill="#80C341"/>
<path d="M17.165 9.7405C16.8862 10.0193 16.9646 10.603 17.3044 10.7337C17.3828 10.7685 17.7226 10.8295 18.0536 10.8731C19.1078 11.0212 20.0749 11.6659 20.5889 12.5458C20.8415 12.964 21.0855 13.8091 21.0855 14.2447C21.0855 14.8632 21.8347 15.1246 22.218 14.6367C22.3923 14.4276 22.401 14.3318 22.3574 13.8178C22.1483 11.4742 20.1445 9.57497 17.8881 9.56626C17.4525 9.56626 17.3044 9.60111 17.165 9.7405Z" fill="#80C341"/>
<path d="M3.90513 21.3539C0.847172 22.4255 -0.0327551 26.2763 2.25854 28.5675C4.13165 30.4407 7.22446 30.2403 8.81878 28.1494C9.48091 27.2694 9.62901 26.799 9.62901 25.466C9.62901 24.3334 9.62901 24.3334 9.30666 23.6539C8.85363 22.7043 8.19151 22.0334 7.2506 21.5717C6.54491 21.2145 6.50135 21.2058 5.50817 21.1796C4.61953 21.1535 4.41915 21.1709 3.90513 21.3539ZM6.71916 22.774C7.27673 23.0528 7.77333 23.5581 8.06954 24.1331C8.40931 24.7865 8.46159 25.8668 8.19151 26.5725C7.93886 27.2607 7.35514 27.8793 6.64075 28.2278C6.11802 28.4891 5.98734 28.5153 5.3165 28.5153C4.68923 28.5066 4.49756 28.4717 4.07938 28.2626C3.44339 27.9577 2.86839 27.3827 2.56346 26.7467C2.35437 26.3285 2.31952 26.1369 2.31081 25.5096C2.31081 24.8388 2.33695 24.7081 2.59831 24.1853C3.36498 22.6259 5.19453 21.9986 6.71916 22.774Z" fill="#80C341"/>
<path d="M33.6309 25.4659C32.69 25.7621 31.7665 26.7117 31.4877 27.6701C31.2786 28.3845 31.3483 29.5083 31.6445 30.1443C31.9407 30.789 32.6203 31.4686 33.265 31.7648C33.7093 31.9739 33.8661 32 34.7199 32C35.5737 32 35.7305 31.9739 36.1748 31.7648C36.8195 31.4686 37.4991 30.789 37.7953 30.1443C38.0044 29.7 38.0305 29.5432 38.0305 28.6894C38.0305 27.8356 38.0044 27.6788 37.7953 27.2345C37.4991 26.5898 36.8195 25.9102 36.1748 25.614C35.7654 25.4223 35.5389 25.3788 34.8506 25.3613C34.3192 25.3439 33.8836 25.3875 33.6309 25.4659ZM35.8264 26.947C36.0267 27.0951 36.3142 27.3826 36.4623 27.5917C36.7063 27.9314 36.7237 28.0186 36.7237 28.6894C36.7237 29.3602 36.7063 29.4473 36.4623 29.7871C36.3142 29.9962 36.0267 30.2837 35.8177 30.4318C35.4779 30.6758 35.3908 30.6932 34.7199 30.6932C34.0491 30.6932 33.962 30.6758 33.6222 30.4318C33.0123 30.0049 32.7336 29.5258 32.69 28.8723C32.6464 28.1928 32.7597 27.8182 33.1517 27.3651C33.6222 26.8163 34.0665 26.6246 34.8245 26.6595C35.3559 26.6856 35.504 26.7292 35.8264 26.947Z" fill="#80C341"/>
</svg>
