<svg width="26" height="32" viewBox="0 0 26 32" fill="none" xmlns="http://www.w3.org/2000/svg">
<path d="M11.7062 0.104918C11.6312 0.167422 9.44357 3.38013 6.83716 7.24912C1.76808 14.7684 1.46806 15.2621 1.01803 16.656C0.217983 19.1749 0.242985 21.7876 1.09929 24.244C2.52438 28.3192 6.12461 31.2632 10.4749 31.9132C11.5125 32.0695 13.4563 32.007 14.4814 31.7882C18.0191 31.0381 20.9693 28.7567 22.5882 25.5253C23.482 23.7314 23.9382 21.4 23.7632 19.4999L23.7007 18.8436L24.0008 18.5311C24.432 18.0873 24.732 17.6685 24.9821 17.181C25.7946 15.5622 25.7509 13.3995 24.8758 11.9057C24.507 11.2806 20.6005 5.51151 20.438 5.35525C20.2193 5.15524 19.8067 5.12399 19.5942 5.299C19.5192 5.35525 19.0879 5.96154 18.6317 6.63659C18.1691 7.31788 17.7941 7.86791 17.7879 7.85541C17.7816 7.84916 16.619 6.1178 15.2002 4.01767C13.7813 1.91128 12.5625 0.148671 12.4875 0.0924173C12.3063 -0.0388411 11.8625 -0.0263403 11.7062 0.104918ZM14.5877 5.48651L16.9941 9.06799L15.9877 10.5806C14.9502 12.1244 14.7377 12.5432 14.5251 13.4245C14.3751 14.0621 14.3876 15.2684 14.5564 15.9559C15.0627 18.0061 16.619 19.5624 18.6754 20.0749C19.738 20.3375 21.1756 20.2312 22.1131 19.8124C22.2694 19.7437 22.4194 19.6999 22.4382 19.7249C22.5194 19.8062 22.4444 21.3813 22.3194 22.0876C21.6006 26.2816 18.3816 29.6006 14.1564 30.5069C13.3626 30.6756 11.625 30.7381 10.7999 30.6256C6.85591 30.1006 3.53695 27.3629 2.29312 23.6189C1.88684 22.3938 1.79308 21.8126 1.79308 20.375C1.78683 19.3999 1.81809 18.9561 1.89934 18.5311C2.0681 17.6498 2.49313 16.4185 2.8744 15.6747C3.25568 14.9434 12.075 1.79878 12.1375 1.86753C12.1625 1.88628 13.2626 3.51764 14.5877 5.48651ZM21.8506 9.75553C22.8507 11.2369 23.7507 12.6307 23.857 12.862C24.7383 14.7434 24.1008 17.0122 22.3506 18.1811C20.513 19.4062 18.1691 19.0624 16.7065 17.3435C16.0002 16.5247 15.6127 15.2371 15.7502 14.1808C15.819 13.637 15.9627 13.1307 16.1628 12.7432C16.3253 12.437 19.9505 7.06161 20.0005 7.06161C20.0192 7.06786 20.8568 8.27419 21.8506 9.75553Z" fill="#80C341"/>
<path d="M4.94948 15.206C4.63071 15.356 3.83691 16.7498 3.50563 17.7436C3.19936 18.65 3.12436 19.0937 3.09311 20.2188C3.03685 21.8314 3.26812 22.9627 3.90566 24.2816C4.83697 26.1879 6.38707 27.6568 8.33094 28.4756C9.09349 28.8006 9.32476 28.8444 9.58727 28.7193C9.83104 28.6068 9.94354 28.4068 9.94354 28.0943C9.94354 27.7818 9.73728 27.6005 9.06849 27.3443C6.79334 26.4505 5.14949 24.5941 4.56195 22.2377C4.38069 21.4939 4.33069 20.1 4.4682 19.3187C4.64946 18.2937 4.99323 17.4249 5.55576 16.5561C5.91204 16.0123 5.95579 15.881 5.87454 15.5873C5.76828 15.2185 5.31825 15.0247 4.94948 15.206Z" fill="#80C341"/>
<path d="M10.8749 28.0879C10.3686 28.3754 10.5499 29.1942 11.1499 29.2942C11.725 29.3817 12.1187 28.6629 11.7375 28.2191C11.5625 28.0129 11.1249 27.9504 10.8749 28.0879Z" fill="#80C341"/>
<path d="M17.094 12.7869C16.769 12.9432 16.5752 13.462 16.5252 14.2808C16.469 15.2371 16.769 16.1184 17.369 16.7684C18.0066 17.4497 18.4254 17.5997 18.8066 17.281C19.1879 16.9559 19.1129 16.5497 18.5816 16.0809C17.8941 15.4809 17.6753 14.6933 17.9441 13.787C18.0816 13.3245 18.0816 13.2932 17.9878 13.0869C17.9191 12.9432 17.8003 12.8369 17.6628 12.7744C17.394 12.6619 17.3378 12.6682 17.094 12.7869Z" fill="#80C341"/>
<path d="M19.713 16.7809C19.4692 16.8872 19.3817 17.0434 19.3817 17.3685C19.3817 17.7435 19.6192 17.9998 19.9755 17.9998C20.488 17.9998 20.7943 17.5497 20.6005 17.0872C20.538 16.9434 20.438 16.8434 20.2943 16.7809C20.0255 16.6684 19.9693 16.6684 19.713 16.7809Z" fill="#80C341"/>
</svg>
