<svg width="30" height="30" viewBox="0 0 30 30" fill="none" xmlns="http://www.w3.org/2000/svg">
<path d="M29.9516 22.675L28.5894 28.5809C28.398 29.4158 27.6642 30 26.8047 30C12.0228 29.9988 0 17.976 0 3.19354C0 2.3346 0.584092 1.59987 1.41907 1.40945L7.32502 0.0472175C8.18513 -0.152108 9.064 0.294353 9.4214 1.10888L12.147 7.46598C12.4657 8.21477 12.2507 9.08719 11.6209 9.60162L8.46637 12.1345C10.4573 16.1902 13.7548 19.4876 17.8116 21.4797L20.3943 18.3275C20.9033 17.6959 21.7823 17.4774 22.5311 17.8017L28.8882 20.5267C29.6528 20.929 30.1508 21.8196 29.9516 22.675Z" fill="#80C341"/>
</svg>
