<svg width="178" height="62" viewBox="0 0 178 62" fill="none" xmlns="http://www.w3.org/2000/svg">
<path d="M48.0342 25.8846V60.7967H43.4824L42.9028 55.5067C41.2009 57.4562 39.0922 59.0086 36.7253 60.0547C34.3584 61.1009 31.7909 61.6152 29.2036 61.5614C18.8818 61.5614 11.1348 53.7391 11.1348 43.3417C11.1348 32.8847 18.8818 25.121 29.2036 25.121C31.8074 25.0637 34.3917 25.582 36.772 26.639C39.1524 27.6959 41.2699 29.2653 42.9736 31.2352L43.6592 25.8847L48.0342 25.8846ZM42.4209 43.3407C42.4806 41.6387 42.1909 39.9425 41.5698 38.3567C40.9488 36.7709 40.0094 35.3292 38.8098 34.1204C37.6101 32.9116 36.1755 31.9613 34.5945 31.3282C33.0135 30.6951 31.3196 30.3926 29.6172 30.4393C27.9134 30.3987 26.2192 30.7049 24.6374 31.3393C23.0556 31.9737 21.6193 32.9231 20.4157 34.1297C19.2122 35.3364 18.2665 36.7751 17.6362 38.3585C17.0059 39.942 16.704 41.637 16.749 43.3407C16.7035 45.0445 17.005 46.7398 17.6351 48.3235C18.2653 49.9072 19.2109 51.3462 20.4145 52.5531C21.6182 53.7599 23.0547 54.7093 24.6367 55.3437C26.2187 55.978 27.9132 56.284 29.6172 56.243C31.3197 56.2897 33.0137 55.9871 34.5947 55.3539C36.1758 54.7207 37.6104 53.7704 38.8101 52.5615C40.0097 51.3526 40.949 49.9108 41.5701 48.3249C42.1911 46.739 42.4807 45.0427 42.4209 43.3407Z" fill="#86BC25"/>
<path d="M123.312 43.3407C123.312 32.8134 131.247 25.12 141.821 25.12C152.402 25.12 160.332 32.8788 160.332 43.3407C160.332 53.8026 152.402 61.5614 141.821 61.5614C131.247 61.5614 123.312 53.8026 123.312 43.3407ZM141.822 56.243C143.532 56.3016 145.235 56.0079 146.827 55.3802C148.418 54.7526 149.864 53.8043 151.073 52.5944C152.283 51.3844 153.231 49.9387 153.858 48.3469C154.485 46.7552 154.778 45.0515 154.719 43.3417C154.723 41.6457 154.392 39.9656 153.746 38.3976C153.099 36.8297 152.15 35.4046 150.952 34.204C149.754 33.0034 148.331 32.0509 146.765 31.4009C145.198 30.751 143.519 30.4164 141.823 30.4164C140.127 30.4163 138.447 30.7507 136.881 31.4006C135.314 32.0504 133.891 33.0028 132.693 34.2033C131.495 35.4038 130.546 36.8288 129.899 38.3967C129.253 39.9646 128.922 41.6447 128.925 43.3407C128.866 45.0504 129.16 46.7539 129.787 48.3454C130.414 49.937 131.362 51.3826 132.571 52.5926C133.781 53.8025 135.226 54.7509 136.817 55.3789C138.408 56.0069 140.112 56.301 141.821 56.243L141.822 56.243Z" fill="#86BC25"/>
<path d="M0.23488 32.7037C0.23488 32.7037 1.50208 18.8201 13.7222 16.343C25.9424 13.866 44.9158 19.0897 44.9158 19.0897C44.9158 19.0897 36.879 13.5044 30.9703 11.676C30.9703 11.676 40.4001 7.19536 56.8133 4.66829C73.2266 2.14122 85.1858 1.29888 96.5732 5.40811C107.961 9.51734 120.456 15.2971 120.456 15.2971L116.299 16.1735C116.299 16.1735 136.931 16.5712 150.051 19.8424C163.171 23.1136 170.529 26.7015 170.529 26.7015H164.437L177.627 36.4019L176.774 28.1501C176.735 27.7745 176.616 27.4116 176.425 27.0862C176.233 26.7607 175.974 26.4803 175.665 26.2639C172.033 23.711 157.977 15.55 125.977 14.9029C125.297 14.8915 124.63 14.7149 124.035 14.3882C119.362 11.8039 96.9063 0 76.612 0C53.8231 0 27.9494 7.605 21.8862 9.11768C15.8229 10.6304 5.88102 13.1163 4.26952 13.3673C2.65802 13.6182 1.52831 13.5722 1.47466 15.219C1.40961 16.6159 1.48333 18.0157 1.69473 19.398C1.85987 20.0861 1.64519 20.2478 1.09198 21.2541C0.538769 22.2604 -0.454341 26.3581 0.23488 32.7037Z" fill="#86BC25"/>
<path d="M47.6997 17.4598C44.5802 15.3248 41.3191 13.4043 37.939 11.7118C44.7109 9.3823 51.6828 7.68113 58.7666 6.62976C58.7666 6.62976 49.084 9.40806 44.3115 11.4169C44.3115 11.4169 49.3215 14.6815 50.0026 15.0604C50.6836 15.4393 50.7682 15.7857 55.502 15.9348C60.2357 16.0839 100.887 17.0418 100.887 17.0418C100.887 17.0418 57.5664 18.413 54.2361 18.413C50.9058 18.413 49.2551 18.2738 47.6997 17.4598Z" fill="#86BC25"/>
<path d="M74.2983 61.5613C83.7461 61.5613 89.7773 55.4363 89.7773 46.0681V25.8845H84.2827V45.1824C84.2827 51.9812 80.5205 56.2429 74.2983 56.2429C68.1357 56.2429 64.3145 52.0398 64.3145 45.1824V25.8845H58.8188V46.0682C58.8188 55.4363 64.9106 61.5613 74.2983 61.5613Z" fill="#86BC25"/>
<path d="M102.225 48.5936C102.225 56.162 106.854 60.7967 114.353 60.7967H118.875V55.7147H115.061C110.31 55.7147 107.721 53.1142 107.721 48.4159V30.8495H118.67V25.8846H107.721V18.494H106.86L96.0811 29.8661V30.8495H102.225L102.225 48.5936Z" fill="#86BC25"/>
</svg>
